#N canvas 499 103 362 526 12;
#X declare -path .puredata-tools;
#N canvas 356 86 647 560 contain 0;
#N canvas 381 141 597 451 mnco 0;
#X obj 107 17 r co;
#X floatatom 233 107 4 0 0 0 measure mn - 0;
#X obj 153 283 pipe 50;
#X floatatom 239 130 3 0 0 0 beat - - 0;
#X obj 153 308 spigot;
#X obj 117 108 tgl 20 0 empty empty met 0 27 0 12 #fcfcfc #000000 #000000 0 1;
#X obj 107 41 unpack 0 0, f 16;
#X obj 216 247 pipe 50;
#X obj 216 271 spigot;
#X obj 216 295 route 2 3 4 6;
#N canvas 717 70 553 456 clicksubs 0;
#X obj 36 127 inlet;
#X obj 126 127 inlet;
#X obj 216 127 inlet;
#X obj 323 127 inlet;
#X obj 36 151 t b;
#X obj 126 151 t b b;
#X obj 216 151 t b b b;
#X obj 31 6 r tem;
#X msg 32 69 tempo \$1 msec;
#X obj 36 175 del 250;
#X obj 126 199 del 250;
#X obj 158 176 del 500;
#X obj 216 222 del 250;
#X obj 239 199 del 500;
#X obj 323 151 t b b b b b;
#X obj 262 176 del 750;
#X obj 323 268 del 250;
#X obj 341 245 del 500;
#X obj 360 222 del 750;
#X obj 397 176 del 1250;
#X obj 378 199 del 1000;
#X obj 32 94 t a a a a a a a a a a a, f 66;
#X obj 408 404 outlet;
#X obj 31 37 expr 1/($f1/60);
#X connect 0 0 4 0;
#X connect 1 0 5 0;
#X connect 2 0 6 0;
#X connect 3 0 14 0;
#X connect 4 0 9 0;
#X connect 5 0 10 0;
#X connect 5 1 11 0;
#X connect 6 0 12 0;
#X connect 6 1 13 0;
#X connect 6 2 15 0;
#X connect 7 0 23 0;
#X connect 8 0 21 0;
#X connect 9 0 22 0;
#X connect 10 0 22 0;
#X connect 11 0 22 0;
#X connect 12 0 22 0;
#X connect 13 0 22 0;
#X connect 14 0 16 0;
#X connect 14 1 17 0;
#X connect 14 2 18 0;
#X connect 14 3 20 0;
#X connect 14 4 19 0;
#X connect 15 0 22 0;
#X connect 16 0 22 0;
#X connect 17 0 22 0;
#X connect 18 0 22 0;
#X connect 19 0 22 0;
#X connect 20 0 22 0;
#X connect 21 0 9 0;
#X connect 21 1 10 0;
#X connect 21 2 11 0;
#X connect 21 3 12 0;
#X connect 21 4 13 0;
#X connect 21 5 15 0;
#X connect 21 6 16 0;
#X connect 21 7 17 0;
#X connect 21 8 18 0;
#X connect 21 9 20 0;
#X connect 21 10 19 0;
#X connect 23 0 8 0;
#X restore 216 322 pd clicksubs;
#X obj 336 319 s starter;
#X floatatom 336 107 5 0 107 0 start\ at: - - 0;
#X obj 349 131 tgl 15 0 empty empty count-in 17 7 0 10 #fcfcfc #000000 #000000 0 1;
#N canvas 417 84 526 564 pointer 0;
#X obj 27 43 inlet;
#X obj 346 42 inlet;
#X obj 396 366 outlet;
#X obj 295 45 inlet;
#N canvas 417 362 450 546 countin 0;
#X obj 27 20 inlet;
#X obj 27 386 outlet;
#X obj 27 45 t b b;
#X obj 59 72 del 50;
#X obj 59 96 t b b b b b b b b;
#X obj 27 359 del 3000;
#X obj 158 123 del 500;
#X obj 141 145 del 1000;
#X obj 124 169 del 1500;
#X obj 108 193 del 2000;
#X obj 75 244 del 2500;
#X obj 302 277 s aclic;
#X obj 192 301 s bclic;
#X obj 124 0 r tem;
#X msg 125 45 tempo \$1 msec;
#X obj 124 23 expr 1/($f1/60);
#X obj 127 69 t a a a a a a a a;
#X connect 0 0 2 0;
#X connect 2 0 5 0;
#X connect 2 1 3 0;
#X connect 3 0 4 0;
#X connect 4 1 10 0;
#X connect 4 3 9 0;
#X connect 4 4 8 0;
#X connect 4 5 7 0;
#X connect 4 6 6 0;
#X connect 4 7 11 0;
#X connect 5 0 1 0;
#X connect 6 0 12 0;
#X connect 7 0 11 0;
#X connect 8 0 12 0;
#X connect 9 0 11 0;
#X connect 10 0 12 0;
#X connect 13 0 15 0;
#X connect 14 0 16 0;
#X connect 15 0 14 0;
#X connect 16 0 6 0;
#X connect 16 1 7 0;
#X connect 16 2 8 0;
#X connect 16 3 9 0;
#X connect 16 5 10 0;
#X connect 16 7 5 0;
#X restore 359 219 pd countin;
#X obj 326 183 route 0 1;
#X obj 115 43 inlet;
#X obj 27 67 list-loc;
#X obj 329 259 bng 15 250 50 0 empty empty empty 17 7 0 10 #fcfcfc #000000 #000000;
#X obj 329 279 del 5;
#X floatatom 109 135 5 0 0 0 - - - 0;
#X obj 87 482 s moveto;
#X obj 57 176 bng 15 250 50 0 empty empty empty 17 7 0 10 #fcfcfc #000000 #000000;
#X msg 329 303 next;
#X obj 31 253 del 10;
#X msg 109 215 set \$1;
#X msg 62 304 0;
#X obj 170 116 loadbang;
#X msg 169 148 0;
#X obj 55 339 until;
#X obj 128 396 print;
#X obj 326 134 f 0;
#X obj 346 67 t b;
#X connect 0 0 7 0;
#X connect 1 0 22 0;
#X connect 3 0 21 1;
#X connect 4 0 8 0;
#X connect 5 0 8 0;
#X connect 5 1 4 0;
#X connect 6 0 12 0;
#X connect 7 0 10 0;
#X connect 8 0 9 0;
#X connect 9 0 13 0;
#X connect 10 0 15 0;
#X connect 12 0 14 0;
#X connect 13 0 2 0;
#X connect 14 0 16 0;
#X connect 15 0 16 0;
#X connect 16 0 19 0;
#X connect 17 0 18 0;
#X connect 18 0 15 0;
#X connect 19 0 11 0;
#X connect 21 0 5 0;
#X connect 22 0 21 0;
#X restore 336 294 pd pointer;
#X obj 403 269 r ens-start;
#X obj 153 332 s aclic;
#X obj 216 348 s bclic;
#X obj 385 107 bng 15 250 50 0 empty empty empty 17 7 0 10 #fcfcfc #000000 #000000;
#X obj 145 133 tgl 15 0 empty empty subdi 17 7 0 10 #fcfcfc #000000 #000000 0 1;
#X obj 385 38 r stoper;
#X obj 385 69 del 30;
#X obj 107 66 t a a, f 7;
#X connect 0 0 6 0;
#X connect 2 0 4 0;
#X connect 4 0 16 0;
#X connect 5 0 4 1;
#X connect 6 0 22 0;
#X connect 6 1 7 0;
#X connect 7 0 8 0;
#X connect 8 0 9 0;
#X connect 9 0 10 0;
#X connect 9 1 10 1;
#X connect 9 2 10 2;
#X connect 9 3 10 3;
#X connect 10 0 17 0;
#X connect 12 0 14 0;
#X connect 13 0 14 2;
#X connect 14 0 11 0;
#X connect 15 0 14 3;
#X connect 18 0 14 1;
#X connect 19 0 8 1;
#X connect 20 0 21 0;
#X connect 21 0 18 0;
#X connect 22 0 3 0;
#X connect 22 1 2 0;
#X coords 0 -1 1 1 320 100 2 100 100;
#X restore 13 54 pd mnco;
#N canvas 2020 167 845 382 impulses 0;
#X obj 14 20 impulse-inspector;
#X restore 544 35 pd impulses;
#N canvas 2212 235 515 197 nummon 0;
#X obj 104 25 r do;
#X obj 104 79 unpack 0 0 0 0 0 0, f 39;
#X floatatom 104 103 5 0 0 0 - - - 0;
#X floatatom 158 103 5 0 0 0 - - - 0;
#X floatatom 212 103 5 0 0 0 - - - 0;
#X floatatom 266 103 5 0 0 0 - - - 0;
#X floatatom 320 103 5 0 0 0 - - - 0;
#X floatatom 374 103 5 0 0 0 - - - 0;
#X obj 144 25 r done;
#X msg 144 49 0 0 0 0 0 0;
#X connect 0 0 1 0;
#X connect 1 0 2 0;
#X connect 1 1 3 0;
#X connect 1 2 4 0;
#X connect 1 3 5 0;
#X connect 1 4 6 0;
#X connect 1 5 7 0;
#X connect 8 0 9 0;
#X connect 9 0 1 0;
#X coords 0 -1 1 1 320 25 2 100 100;
#X restore 13 160 pd nummon;
#N canvas 403 140 554 452 kons 0;
#X obj 59 135 bng 30 250 50 0 empty empty empty 17 7 0 10 #fcfcfc #000000 #000000;
#X obj 245 182 s tem;
#X obj 146 408 s stoper;
#X obj 146 145 bng 20 250 50 0 empty empty empty 17 7 0 10 #fcfcfc #000000 #000000;
#X obj 245 138 nbx 5 25 40 200 0 0 empty empty empty 0 -8 0 14 #fcfcfc #000000 #000000 0 256;
#X obj 199 12 loadbang;
#X text 91 147 start;
#X text 168 148 stop;
#X text 322 143 tempo;
#X obj 59 408 s ens-start;
#X msg 245 105 98;
#X msg 412 89 \; pd dsp 0;
#X obj 199 37 t b b b;
#X obj 199 212 t b b b;
#X obj 80 351 del 400;
#X obj 199 345 del 3000;
#X connect 0 0 9 0;
#X connect 3 0 2 0;
#X connect 4 0 1 0;
#X connect 5 0 12 0;
#X connect 10 0 4 0;
#X connect 12 0 13 0;
#X connect 12 1 11 0;
#X connect 12 2 10 0;
#X connect 13 0 15 0;
#X connect 13 1 14 0;
#X connect 13 2 2 0;
#X connect 14 0 9 0;
#X connect 15 0 2 0;
#X coords 0 -1 1 1 320 40 2 50 130;
#X restore 13 9 pd kons;
#N canvas 300 87 760 558 coutv 0;
#X obj 151 116 vu 15 120 empty empty -1 -8 0 10 #404040 #000000 1 0;
#N canvas 2060 150 625 417 vu 0;
#X obj 59 129 env~ 1024;
#X obj 161 111 abs~;
#X obj 161 213 snapshot~;
#X obj 161 256 rmstodb;
#X obj 161 21 inlet~;
#X obj 161 288 - 100;
#X obj 59 287 - 100;
#X obj 59 361 outlet;
#X obj 161 361 outlet;
#X obj 239 89 expr 1000 / $f1;
#X floatatom 239 117 5 0 0 0 - - - 0;
#X obj 161 146 slop~ 0 0 0 0 1e+09;
#X text 359 89 convert to hz;
#X text 282 118 hz;
#X text 284 57 peak decay time in ms;
#X obj 59 171 t f b;
#X obj 239 38 loadbang;
#X msg 239 62 500;
#X connect 0 0 15 0;
#X connect 1 0 11 0;
#X connect 2 0 3 0;
#X connect 3 0 5 0;
#X connect 4 0 0 0;
#X connect 4 0 1 0;
#X connect 5 0 8 0;
#X connect 6 0 7 0;
#X connect 9 0 10 0;
#X connect 10 0 11 3;
#X connect 11 0 2 0;
#X connect 15 0 6 0;
#X connect 15 1 2 0;
#X connect 16 0 17 0;
#X connect 17 0 9 0;
#X restore 176 76 pd vu;
#X obj 294 116 vu 15 120 empty empty -1 -8 0 10 #404040 #000000 1 0;
#N canvas 2060 150 625 417 vu 0;
#X obj 59 129 env~ 1024;
#X obj 161 111 abs~;
#X obj 161 213 snapshot~;
#X obj 161 256 rmstodb;
#X obj 161 21 inlet~;
#X obj 161 288 - 100;
#X obj 59 287 - 100;
#X obj 59 361 outlet;
#X obj 161 361 outlet;
#X obj 239 89 expr 1000 / $f1;
#X floatatom 239 117 5 0 0 0 - - - 0;
#X obj 161 146 slop~ 0 0 0 0 1e+09;
#X text 359 89 convert to hz;
#X text 282 118 hz;
#X text 284 57 peak decay time in ms;
#X obj 59 171 t f b;
#X obj 239 38 loadbang;
#X msg 239 62 500;
#X connect 0 0 15 0;
#X connect 1 0 11 0;
#X connect 2 0 3 0;
#X connect 3 0 5 0;
#X connect 4 0 0 0;
#X connect 4 0 1 0;
#X connect 5 0 8 0;
#X connect 6 0 7 0;
#X connect 9 0 10 0;
#X connect 10 0 11 3;
#X connect 11 0 2 0;
#X connect 15 0 6 0;
#X connect 15 1 2 0;
#X connect 16 0 17 0;
#X connect 17 0 9 0;
#X restore 329 76 pd vu;
#X obj 90 376 outlet~;
#X obj 327 380 outlet~;
#X obj 97 74 *~ 1;
#X obj 116 117 vsl 15 128 0 1120 0 0 empty empty empty 0 -9 0 10 #fcfcfc #000000 #000000 0 1;
#X obj 267 117 vsl 15 128 0 1120 0 0 empty empty empty 0 -9 0 10 #fcfcfc #000000 #000000 0 1;
#X floatatom 107 253 5 0 0 0 - - - 0;
#X floatatom 256 253 5 0 0 0 - - - 0;
#X obj 152 318 dbtorms;
#X obj 147 288 * 0.1;
#X obj 109 318 - 100;
#X obj 298 315 dbtorms;
#X obj 293 285 * 0.1;
#X obj 255 315 - 100;
#X msg 25 232 set \$1;
#X msg 25 256 1000;
#X obj 425 227 *~ 1;
#X obj 26 183 + 100;
#X obj 26 207 * 10;
#X obj 20 104 loadbang;
#X text 349 165 CLICK;
#X text 196 160 Output;
#X msg 466 171 set \$1;
#X msg 466 195 700;
#X obj 467 122 + 100;
#X obj 467 146 * 10;
#X obj 461 43 loadbang;
#X obj 149 256 bng 15 250 50 0 empty empty empty 17 7 0 10 #fcfcfc #000000 #000000;
#X obj 297 256 bng 15 250 50 0 empty empty empty 17 7 0 10 #fcfcfc #000000 #000000;
#X obj 82 24 inlet~;
#X obj 329 39 inlet~;
#X connect 1 0 0 0;
#X connect 1 1 0 1;
#X connect 3 0 2 0;
#X connect 3 1 2 1;
#X connect 6 0 4 0;
#X connect 7 0 12 0;
#X connect 8 0 15 0;
#X connect 9 0 20 0;
#X connect 10 0 27 0;
#X connect 11 0 6 1;
#X connect 12 0 11 0;
#X connect 12 0 13 0;
#X connect 13 0 9 0;
#X connect 14 0 19 1;
#X connect 15 0 14 0;
#X connect 15 0 16 0;
#X connect 16 0 10 0;
#X connect 17 0 18 0;
#X connect 18 0 7 0;
#X connect 19 0 5 0;
#X connect 20 0 21 0;
#X connect 21 0 17 0;
#X connect 22 0 18 0;
#X connect 25 0 26 0;
#X connect 26 0 8 0;
#X connect 27 0 28 0;
#X connect 28 0 25 0;
#X connect 29 0 26 0;
#X connect 30 0 18 0;
#X connect 31 0 26 0;
#X connect 32 0 6 0;
#X connect 32 0 1 0;
#X connect 33 0 3 0;
#X connect 33 0 19 0;
#X coords 0 -1 1 1 320 180 2 100 100;
#X restore 14 214 pd coutv;
#N canvas 280 84 800 564 clicker 0;
#X obj 138 366 outlet~;
#X obj 61 44 r aclic;
#X obj 272 57 r bclic;
#X obj 59 77 bng 15 250 50 0 empty empty empty 17 7 0 10 #fcfcfc #000000 #000000;
#X obj 181 114 noise~;
#X msg 26 125 1;
#X msg 59 125 0;
#X obj 139 168 *~ 0;
#X obj 191 175 hip~ 2000;
#X msg 266 172 1;
#X msg 299 172 0;
#X obj 248 234 *~ 0;
#X obj 266 126 bng 15 250 50 0 empty empty empty 17 7 0 10 #fcfcfc #000000 #000000;
#X obj 59 99 del 10;
#X obj 299 146 del 5;
#X obj 151 241 lop~ 1000;
#X obj 139 192 *~ 2;
#X obj 248 258 *~ 0.3;
#X connect 1 0 3 0;
#X connect 2 0 12 0;
#X connect 3 0 5 0;
#X connect 3 0 13 0;
#X connect 4 0 7 0;
#X connect 4 0 8 0;
#X connect 5 0 7 1;
#X connect 6 0 7 1;
#X connect 7 0 16 0;
#X connect 8 0 11 0;
#X connect 9 0 11 1;
#X connect 10 0 11 1;
#X connect 11 0 17 0;
#X connect 12 0 9 0;
#X connect 12 0 14 0;
#X connect 13 0 6 0;
#X connect 14 0 10 0;
#X connect 15 0 0 0;
#X connect 16 0 15 0;
#X connect 17 0 0 0;
#X restore 261 188 pd clicker;
#X obj 353 35 q-opener sts-qlist-ens.txt;
#X obj 14 507 dac~ 1 2 3, f 45;
#N canvas 490 64 380 604 kpst-player 0;
#X obj 255 492 catch~ out;
#X obj 19 219 route 1 2 3 4 5 6 7 8 9 10 11 12;
#X obj 19 168 poly 12 1, f 10;
#X obj 19 124 pack, f 6;
#X obj 19 192 pack 0 0 0 0 0 0 0, f 32;
#N canvas 2708 269 188 210 pos-c 0;
#X obj 36 22 inlet;
#X obj 36 46 t f b;
#X obj 36 121 +;
#X obj 68 94 -5;
#X obj 68 70 random 14;
#X obj 31 158 outlet;
#X obj 97 157 print;
#X connect 0 0 1 0;
#X connect 1 0 2 0;
#X connect 1 1 4 0;
#X connect 2 0 5 0;
#X connect 3 0 2 1;
#X connect 4 0 3 0;
#X restore 84 103 pd pos-c;
#X obj 19 67 t f f;
#N canvas 2332 284 815 522 artdur 0;
#X obj 12 24 inlet;
#X obj 66 24 inlet;
#X obj 121 25 inlet;
#X obj 11 76 route 1 2 3, f 102;
#X obj 12 52 pack 0 0 0, f 16;
#X obj 742 75 inlet;
#X obj 742 168 s $-ta;
#X obj 742 98 t b f;
#X obj 742 145 /;
#X msg 742 122 60;
#X obj 248 195 pipe 10;
#X obj 358 151 mtof;
#X obj 358 175 pipe 2;
#X obj 358 224 / 13.75;
#X obj 308 221 pipe 6;
#X obj 340 253 /;
#X msg 248 148 1;
#X obj 248 100 unpack 0 0, f 23;
#X obj 248 172 t f f, f 9;
#X obj 248 314 -;
#X obj 358 200 * 0.5, f 7;
#X obj 424 101 r $-ta;
#X obj 248 124 t f f;
#X obj 339 277 * 0.05;
#X obj 11 196 pipe 10;
#X obj 121 152 mtof;
#X obj 121 176 pipe 2;
#X obj 121 225 / 13.75;
#X obj 71 222 pipe 6;
#X obj 103 254 /;
#X msg 11 149 1;
#X obj 11 101 unpack 0 0, f 23;
#X obj 11 173 t f f, f 9;
#X obj 11 315 -;
#X obj 121 201 * 0.5, f 7;
#X obj 187 102 r $-ta;
#X obj 11 125 t f f;
#X obj 483 196 pipe 10;
#X obj 593 152 mtof;
#X obj 593 176 pipe 2;
#X obj 593 225 / 13.75;
#X obj 543 222 pipe 6;
#X obj 575 254 /;
#X msg 483 149 1;
#X obj 483 101 unpack 0 0, f 23;
#X obj 483 173 t f f, f 9;
#X obj 483 315 -;
#X obj 593 201 * 0.5, f 7;
#X obj 659 102 r $-ta;
#X obj 483 125 t f f;
#X obj 169 127 * 1;
#X obj 406 126 * 1;
#X obj 641 127 * 1;
#X obj 574 278 * 0.01;
#X obj 11 339 s \$0-out;
#X obj 248 338 s \$0-out;
#X obj 483 339 s \$0-out;
#X obj 19 392 r \$0-out;
#X obj 19 416 * 1000;
#X obj 19 440 outlet;
#X obj 87 392 r \$0-out;
#X obj 87 416 * 1000;
#X obj 87 440 outlet;
#X obj 102 278 * 0.09;
#X connect 0 0 4 0;
#X connect 1 0 4 1;
#X connect 2 0 4 2;
#X connect 3 0 31 0;
#X connect 3 1 17 0;
#X connect 3 2 44 0;
#X connect 4 0 3 0;
#X connect 5 0 7 0;
#X connect 7 0 9 0;
#X connect 7 1 8 1;
#X connect 8 0 6 0;
#X connect 9 0 8 0;
#X connect 10 0 19 0;
#X connect 11 0 12 0;
#X connect 12 0 20 0;
#X connect 13 0 15 1;
#X connect 14 0 15 0;
#X connect 15 0 23 0;
#X connect 16 0 18 0;
#X connect 17 0 22 0;
#X connect 17 1 51 0;
#X connect 18 0 10 0;
#X connect 18 1 14 0;
#X connect 19 0 55 0;
#X connect 20 0 13 0;
#X connect 21 0 51 1;
#X connect 22 0 16 0;
#X connect 22 1 11 0;
#X connect 23 0 19 1;
#X connect 24 0 33 0;
#X connect 25 0 26 0;
#X connect 26 0 34 0;
#X connect 27 0 29 1;
#X connect 28 0 29 0;
#X connect 29 0 63 0;
#X connect 30 0 32 0;
#X connect 31 0 36 0;
#X connect 31 1 50 0;
#X connect 32 0 24 0;
#X connect 32 1 28 0;
#X connect 33 0 54 0;
#X connect 34 0 27 0;
#X connect 35 0 50 1;
#X connect 36 0 30 0;
#X connect 36 1 25 0;
#X connect 37 0 46 0;
#X connect 38 0 39 0;
#X connect 39 0 47 0;
#X connect 40 0 42 1;
#X connect 41 0 42 0;
#X connect 42 0 53 0;
#X connect 43 0 45 0;
#X connect 44 0 49 0;
#X connect 44 1 52 0;
#X connect 45 0 37 0;
#X connect 45 1 41 0;
#X connect 46 0 56 0;
#X connect 47 0 40 0;
#X connect 48 0 52 1;
#X connect 49 0 43 0;
#X connect 49 1 38 0;
#X connect 50 0 34 1;
#X connect 51 0 20 1;
#X connect 52 0 47 1;
#X connect 53 0 46 1;
#X connect 57 0 58 0;
#X connect 58 0 59 0;
#X connect 60 0 61 0;
#X connect 61 0 62 0;
#X connect 63 0 33 1;
#X restore 155 103 pd artdur;
#X obj 19 17 r do;
#X obj 19 43 unpack 0 0 0 0 0 0, f 33;
#X obj 260 44 r tem;
#X obj 310 118 bng 15 250 50 0 empty empty empty 17 7 0 10 #fcfcfc #000000 #000000;
#X obj 310 143 random 7;
#X obj 310 167 + 2;
#X obj 19 97 pipe 45;
#X obj 255 520 outlet~;
#X obj 252 88 sel 1;
#X msg 252 112 1;
#X obj 303 85 sel 0;
#X obj 19 566 kpst-voice;
#X obj 36 540 kpst-voice;
#X obj 56 513 kpst-voice;
#X obj 73 487 kpst-voice;
#X obj 92 461 kpst-voice;
#X obj 109 435 kpst-voice;
#X obj 129 408 kpst-voice;
#X obj 146 382 kpst-voice;
#X obj 167 351 kpst-voice;
#X obj 184 325 kpst-voice;
#X obj 204 298 kpst-voice;
#X obj 221 272 kpst-voice;
#X connect 0 0 15 0;
#X connect 1 0 19 0;
#X connect 1 1 20 0;
#X connect 1 2 21 0;
#X connect 1 3 22 0;
#X connect 1 4 23 0;
#X connect 1 5 24 0;
#X connect 1 6 25 0;
#X connect 1 7 26 0;
#X connect 1 8 27 0;
#X connect 1 9 28 0;
#X connect 1 10 29 0;
#X connect 1 11 30 0;
#X connect 2 0 4 0;
#X connect 2 1 4 1;
#X connect 2 2 4 2;
#X connect 3 0 2 0;
#X connect 4 0 1 0;
#X connect 5 0 4 3;
#X connect 6 0 14 0;
#X connect 6 1 7 1;
#X connect 7 0 4 4;
#X connect 7 1 4 5;
#X connect 8 0 9 0;
#X connect 9 0 6 0;
#X connect 9 1 3 1;
#X connect 9 2 5 0;
#X connect 9 3 7 0;
#X connect 9 4 7 2;
#X connect 9 5 16 0;
#X connect 9 5 18 0;
#X connect 10 0 7 3;
#X connect 11 0 12 0;
#X connect 12 0 13 0;
#X connect 13 0 4 6;
#X connect 14 0 3 0;
#X connect 16 0 17 0;
#X connect 17 0 4 6;
#X connect 18 0 11 0;
#X restore 14 189 pd kpst-player;
#N canvas 272 59 815 615 routinger 0;
#X obj 186 320 line;
#X msg 186 295 \$1 100;
#X obj 306 152 tgl 19 0 empty empty output 0 -10 0 12 #fcfcfc #000000 #000000 0 1;
#X text 311 107 channel 1;
#X obj 239 320 line;
#X msg 239 295 \$1 100;
#X obj 359 152 tgl 19 0 empty empty CLICK 0 -10 0 12 #fcfcfc #000000 #000000 0 1;
#X obj 303 320 line;
#X msg 303 295 \$1 100;
#X obj 423 152 tgl 19 0 empty empty output 0 -10 0 12 #fcfcfc #000000 #000000 0 1;
#X obj 356 320 line;
#X msg 356 295 \$1 100;
#X obj 476 152 tgl 19 0 empty empty CLICK 0 -10 0 12 #fcfcfc #000000 #000000 0 1;
#X obj 410 320 line;
#X msg 410 295 \$1 100;
#X obj 530 152 tgl 19 0 empty empty output 0 -10 0 12 #fcfcfc #000000 #000000 0 1;
#X obj 463 320 line;
#X msg 463 295 \$1 100;
#X obj 583 152 tgl 19 0 empty empty CLICK 0 -10 0 12 #fcfcfc #000000 #000000 0 1;
#X text 428 107 channel 2;
#X text 535 107 channel 3;
#X obj 33 300 inlet~;
#X obj 123 302 inlet~;
#X obj 306 196 t f b f;
#X obj 365 196 t f b f;
#X obj 423 196 t f b f;
#X obj 482 196 t f b f;
#X obj 542 196 t f b f;
#X obj 601 196 t f b f;
#X obj 555 297 pack 0 0 0 0 0 0 0;
#X msg 555 323 set \$2 \$3 \$4 \$5 \$6 \$7;
#X msg 667 48 0 1 0 1 0 0;
#X obj 668 80 unpack 0 0 0 0 0 0;
#X obj 541 11 loadbang;
#X obj 546 45 del 1000;
#X obj 38 445 *~ 0;
#X obj 85 445 *~ 0;
#X obj 135 445 *~ 0;
#X obj 182 445 *~ 0;
#X obj 238 445 *~ 0;
#X obj 285 445 *~ 0;
#X obj 60 538 outlet~;
#X obj 154 535 outlet~;
#X obj 267 545 outlet~;
#X connect 0 0 35 1;
#X connect 1 0 0 0;
#X connect 2 0 23 0;
#X connect 4 0 36 1;
#X connect 5 0 4 0;
#X connect 6 0 24 0;
#X connect 7 0 37 1;
#X connect 8 0 7 0;
#X connect 9 0 25 0;
#X connect 10 0 38 1;
#X connect 11 0 10 0;
#X connect 12 0 26 0;
#X connect 13 0 39 1;
#X connect 14 0 13 0;
#X connect 15 0 27 0;
#X connect 16 0 40 1;
#X connect 17 0 16 0;
#X connect 18 0 28 0;
#X connect 21 0 35 0;
#X connect 21 0 37 0;
#X connect 21 0 39 0;
#X connect 22 0 36 0;
#X connect 22 0 38 0;
#X connect 22 0 40 0;
#X connect 23 0 1 0;
#X connect 23 1 29 0;
#X connect 23 2 29 1;
#X connect 24 0 5 0;
#X connect 24 1 29 0;
#X connect 24 2 29 2;
#X connect 25 0 8 0;
#X connect 25 1 29 0;
#X connect 25 2 29 3;
#X connect 26 0 11 0;
#X connect 26 1 29 0;
#X connect 26 2 29 4;
#X connect 27 0 14 0;
#X connect 27 1 29 0;
#X connect 27 2 29 5;
#X connect 28 0 17 0;
#X connect 28 1 29 0;
#X connect 28 2 29 6;
#X connect 29 0 30 0;
#X connect 30 0 31 0;
#X connect 31 0 32 0;
#X connect 32 0 2 0;
#X connect 32 1 6 0;
#X connect 32 2 9 0;
#X connect 32 3 12 0;
#X connect 32 4 15 0;
#X connect 32 5 18 0;
#X connect 33 0 34 0;
#X connect 34 0 31 0;
#X connect 35 0 41 0;
#X connect 36 0 41 0;
#X connect 37 0 42 0;
#X connect 38 0 42 0;
#X connect 39 0 43 0;
#X connect 40 0 43 0;
#X coords 0 -1 1 1 320 86 2 300 100;
#X restore 14 400 pd routinger;
#X obj 353 12 declare -path .puredata-tools;
#X connect 4 0 9 0;
#X connect 4 1 9 1;
#X connect 5 0 4 1;
#X connect 8 0 4 0;
#X connect 9 0 7 0;
#X connect 9 1 7 1;
#X connect 9 2 7 2;
#X coords 0 -1 1 1 347 500 2 0 0;
#X restore 0 -1 pd contain;
