#N canvas 63 88 450 300 12;
#X obj 17 19 inlet;
#X obj 17 184 kpst-wrap1~, f 47;
#X obj 17 160 del 5;
#X obj 17 141 bng 15 250 50 0 empty empty empty 17 7 0 10 #fcfcfc #000000 #000000;
#X obj 17 92 stripnote;
#X obj 17 67 pack, f 12;
#X obj 17 116 t b f;
#X obj 17 43 unpack 0 0 0 0 0 0, f 47;
#X obj 17 208 throw~ out;
#X connect 0 0 7 0;
#X connect 1 0 8 0;
#X connect 2 0 1 0;
#X connect 3 0 2 0;
#X connect 4 0 6 0;
#X connect 4 1 1 2;
#X connect 5 0 4 0;
#X connect 6 0 3 0;
#X connect 6 1 1 3;
#X connect 7 0 5 0;
#X connect 7 1 5 1;
#X connect 7 2 1 4;
#X connect 7 3 1 5;
#X connect 7 4 1 6;
#X connect 7 5 1 1;
