#N canvas 2840 38 690 362 12;
#X obj 9 284 kpst~ 55 0.99 0.99 0.99, f 76;
#X obj 9 15 inlet;
#X msg 9 188 \$1 bang;
#X obj 9 117 t b b b b b, f 76;
#X obj 89 40 s \$0-inum;
#X obj 27 142 r \$0-inum;
#N canvas 1880 145 1358 464 \$0-impulses 0;
#X obj 25 23 inlet;
#X obj 23 425 outlet~;
#X obj 25 95 sam~;
#X obj 287 115 tabplay~ impulse2;
#X obj 419 115 tabplay~ impulse3;
#X obj 550 115 tabplay~ impulse4;
#X obj 680 115 tabplay~ impulse5;
#X obj 84 106 noise~;
#X msg 123 159 1;
#X msg 156 159 0;
#X obj 156 133 del 2;
#X obj 84 216 *~ 0;
#X obj 25 50 route 0 1 2 3 4 5 6 7 8 9, f 188;
#X obj 810 115 tabplay~ impulse6;
#X obj 943 115 tabplay~ impulse7;
#X obj 1073 115 tabplay~ impulse8;
#X obj 1203 115 tabplay~ impulse9;
#X connect 0 0 12 0;
#X connect 2 0 1 0;
#X connect 3 0 1 0;
#X connect 4 0 1 0;
#X connect 5 0 1 0;
#X connect 6 0 1 0;
#X connect 7 0 11 0;
#X connect 8 0 11 1;
#X connect 9 0 11 1;
#X connect 10 0 9 0;
#X connect 11 0 1 0;
#X connect 12 0 2 0;
#X connect 12 1 10 0;
#X connect 12 1 8 0;
#X connect 12 2 3 0;
#X connect 12 3 4 0;
#X connect 12 4 5 0;
#X connect 12 5 6 0;
#X connect 12 6 13 0;
#X connect 12 7 14 0;
#X connect 12 8 15 0;
#X connect 12 9 16 0;
#X connect 12 10 2 0;
#X connect 13 0 1 0;
#X connect 14 0 1 0;
#X connect 15 0 1 0;
#X connect 16 0 1 0;
#X restore 9 211 pd \$0-impulses;
#X obj 249 40 s \$0-p;
#X obj 166 187 r \$0-p;
#X obj 169 88 s \$0-vel;
#X obj 141 210 f 55;
#X obj 9 165 f 0;
#X obj 405 210 f 0.99;
#X obj 538 210 f 0.99;
#X obj 409 63 s \$0-f-feed;
#X obj 444 187 r \$0-f-feed;
#X obj 577 187 r \$0-b-feed;
#X obj 499 63 s \$0-b-feed;
#X obj 169 40 * 0.0075;
#X obj 169 64 + 0.0475;
#X obj 273 210 f 1;
#X obj 329 39 / 127;
#X obj 9 260 *~ 0.8;
#X obj 48 236 r \$0-vel;
#X obj 89 15 inlet;
#X obj 169 15 inlet;
#X obj 249 15 inlet;
#X obj 329 15 inlet;
#X obj 409 15 inlet;
#X obj 499 15 inlet;
#X obj 409 39 / 1000;
#X obj 499 39 / 1000;
#X obj 329 63 s \$0-loc;
#X obj 291 186 r \$0-loc;
#X obj 9 308 outlet~;
#X connect 0 0 34 0;
#X connect 1 0 3 0;
#X connect 2 0 6 0;
#X connect 3 0 11 0;
#X connect 3 1 10 0;
#X connect 3 2 20 0;
#X connect 3 3 12 0;
#X connect 3 4 13 0;
#X connect 5 0 11 1;
#X connect 6 0 22 0;
#X connect 8 0 10 1;
#X connect 10 0 0 1;
#X connect 11 0 2 0;
#X connect 12 0 0 3;
#X connect 13 0 0 4;
#X connect 15 0 12 1;
#X connect 16 0 13 1;
#X connect 18 0 19 0;
#X connect 19 0 9 0;
#X connect 20 0 0 2;
#X connect 21 0 32 0;
#X connect 22 0 0 0;
#X connect 23 0 22 1;
#X connect 24 0 4 0;
#X connect 25 0 18 0;
#X connect 26 0 7 0;
#X connect 27 0 21 0;
#X connect 28 0 30 0;
#X connect 29 0 31 0;
#X connect 30 0 14 0;
#X connect 31 0 17 0;
#X connect 33 0 20 1;
