#N canvas 2616 388 548 334 12;
#X obj 32 25 inlet;
#X obj 32 264 outlet~;
#X obj 32 73 unpack 0 0 0, f 16;
#X obj 32 131 pack, f 6;
#X obj 32 49 t a b, f 19;
#X obj 129 97 pipe;
#X obj 88 131 pipe;
#X obj 162 189 kpst-wrap1~, f 41;
#X msg 209 163 1, f 1;
#X msg 256 163 120;
#X obj 162 73 t b b b b, f 40;
#X obj 304 166 inlet;
#X obj 32 240 *~, f 19;
#X msg 32 155 \$1 \$2;
#X msg 88 155 0 \$1;
#X obj 88 97 t f f;
#X obj 32 97 pipe 50;
#X obj 32 190 line;
#X obj 162 214 rev3~ 100 90 3000 20;
#X msg 439 99 995;
#X connect 0 0 4 0;
#X connect 2 0 16 0;
#X connect 2 1 15 0;
#X connect 2 2 5 0;
#X connect 3 0 13 0;
#X connect 4 0 2 0;
#X connect 4 1 10 0;
#X connect 5 0 6 0;
#X connect 6 0 14 0;
#X connect 7 0 18 0;
#X connect 8 0 7 1;
#X connect 9 0 7 2;
#X connect 10 0 7 0;
#X connect 10 1 8 0;
#X connect 10 2 9 0;
#X connect 10 3 19 0;
#X connect 11 0 7 3;
#X connect 12 0 1 0;
#X connect 13 0 17 0;
#X connect 14 0 17 0;
#X connect 15 0 3 1;
#X connect 15 1 6 1;
#X connect 16 0 3 0;
#X connect 17 0 12 0;
#X connect 18 0 12 1;
#X connect 19 0 7 6;
#X connect 19 0 7 5;
