#N canvas 83 114 1597 747 12;
#X msg 42 104 1;
#X msg 73 104 11;
#X msg 105 104 14;
#X msg 137 104 17;
#X obj 42 80 route 1 2 3 4 5 6 7 8 9 10 11 12 13 14 15 16 17 18 19
20, f 91;
#X msg 168 104 20;
#X msg 199 104 26;
#X msg 231 104 36;
#X msg 263 104 38;
#X msg 295 104 43;
#X msg 326 104 46;
#X msg 358 104 52;
#X msg 390 104 63;
#X msg 421 104 70;
#X msg 452 104 74;
#X msg 484 104 78;
#X msg 516 104 80;
#X msg 549 104 83;
#X msg 580 104 86;
#X msg 612 104 89;
#X msg 644 104 91;
#X msg 707 128 104;
#X msg 739 128 106;
#X msg 771 128 109;
#X msg 802 128 112;
#X msg 833 128 118;
#X msg 865 128 120;
#X msg 897 128 123;
#X msg 929 128 126;
#X msg 960 128 128;
#X msg 992 128 131;
#X msg 1024 128 135;
#X msg 1055 128 144;
#X msg 1086 128 147;
#X msg 1118 128 150;
#X msg 1150 128 157;
#X msg 1183 128 161;
#X msg 1214 128 163;
#X msg 1246 128 168;
#X msg 1278 128 171;
#X obj 676 104 route 21 22 23 24 25 26 27 28 29 30 31 32 33 34 35 36
37 38 39 40, f 91;
#X msg 675 128 98;
#X msg 217 258 182;
#X msg 249 258 189;
#X msg 281 258 192;
#X msg 312 258 196;
#X msg 343 258 205;
#X msg 375 258 207;
#X msg 407 258 210;
#X msg 439 258 214;
#X msg 470 258 219;
#X msg 502 258 224;
#X msg 534 258 226;
#X msg 565 258 230;
#X msg 596 258 236;
#X msg 628 258 238;
#X msg 660 258 245;
#X msg 693 258 261;
#X msg 724 258 264;
#X msg 756 258 268;
#X msg 788 258 273;
#X msg 185 258 176;
#X obj 186 234 route 41 42 43 44 45 46 47 48 49 50 51 52 53 54 55 56
57 58 59 60, f 91;
#X msg 851 282 278;
#X msg 883 282 282;
#X msg 915 282 285;
#X msg 946 282 287;
#X msg 977 282 290;
#X msg 1009 282 293;
#X msg 1041 282 296;
#X msg 1073 282 302;
#X msg 1104 282 305;
#X msg 1136 282 309;
#X msg 1168 282 311;
#X msg 1199 282 316;
#X msg 1230 282 318;
#X msg 1262 282 321;
#X msg 1294 282 324;
#X msg 1327 282 331;
#X msg 1358 282 335;
#X msg 1390 282 339;
#X msg 1422 282 342;
#X msg 819 282 275;
#X obj 820 258 route 61 62 63 64 65 66 67 68 69 70 71 72 73 74 75 76
77 78 79 80, f 91;
#X msg 427 435 349;
#X msg 459 435 352;
#X msg 491 435 355;
#X msg 522 435 357;
#X msg 553 435 361;
#X msg 585 435 363;
#X msg 617 435 365;
#X msg 649 435 368;
#X msg 680 435 372;
#X msg 712 435 377;
#X msg 744 435 379;
#X msg 775 435 382;
#X msg 806 435 387;
#X msg 838 435 394;
#X msg 870 435 397;
#X msg 903 435 401;
#X msg 934 435 407;
#X msg 966 435 411;
#X msg 998 435 415;
#X msg 395 435 345;
#X obj 396 411 route 81 82 83 84 85 86 87 88 89 90 91 92 93 94 95 96
97 98 99 100, f 91;
#X msg 1061 459 422;
#X msg 1093 459 426;
#X msg 1125 459 432;
#X msg 1156 459 439;
#X msg 1187 459 442;
#X msg 1219 459 444;
#X msg 1029 459 417;
#X obj 1030 435 route 101 102 103 104 105 106 107, f 35;
#X obj 42 38 inlet;
#X obj 117 630 outlet;
#X obj 230 561 - 1;
#X obj 314 405 - 1;
#X obj 129 231 - 1;
#X connect 0 0 117 0;
#X connect 1 0 117 0;
#X connect 2 0 117 0;
#X connect 3 0 117 0;
#X connect 4 0 0 0;
#X connect 4 1 1 0;
#X connect 4 2 2 0;
#X connect 4 3 3 0;
#X connect 4 4 5 0;
#X connect 4 5 6 0;
#X connect 4 6 7 0;
#X connect 4 7 8 0;
#X connect 4 8 9 0;
#X connect 4 9 10 0;
#X connect 4 10 11 0;
#X connect 4 11 12 0;
#X connect 4 12 13 0;
#X connect 4 13 14 0;
#X connect 4 14 15 0;
#X connect 4 15 16 0;
#X connect 4 16 17 0;
#X connect 4 17 18 0;
#X connect 4 18 19 0;
#X connect 4 19 20 0;
#X connect 4 20 40 0;
#X connect 5 0 117 0;
#X connect 6 0 117 0;
#X connect 7 0 117 0;
#X connect 8 0 117 0;
#X connect 9 0 117 0;
#X connect 10 0 117 0;
#X connect 11 0 117 0;
#X connect 12 0 117 0;
#X connect 13 0 117 0;
#X connect 14 0 117 0;
#X connect 15 0 117 0;
#X connect 16 0 117 0;
#X connect 17 0 117 0;
#X connect 18 0 117 0;
#X connect 19 0 117 0;
#X connect 20 0 117 0;
#X connect 21 0 117 0;
#X connect 22 0 117 0;
#X connect 23 0 117 0;
#X connect 24 0 117 0;
#X connect 25 0 117 0;
#X connect 26 0 117 0;
#X connect 27 0 117 0;
#X connect 28 0 117 0;
#X connect 29 0 117 0;
#X connect 30 0 117 0;
#X connect 31 0 117 0;
#X connect 32 0 117 0;
#X connect 33 0 117 0;
#X connect 34 0 117 0;
#X connect 35 0 117 0;
#X connect 36 0 117 0;
#X connect 37 0 117 0;
#X connect 38 0 117 0;
#X connect 39 0 117 0;
#X connect 40 0 41 0;
#X connect 40 1 21 0;
#X connect 40 2 22 0;
#X connect 40 3 23 0;
#X connect 40 4 24 0;
#X connect 40 5 25 0;
#X connect 40 6 26 0;
#X connect 40 7 27 0;
#X connect 40 8 28 0;
#X connect 40 9 29 0;
#X connect 40 10 30 0;
#X connect 40 11 31 0;
#X connect 40 12 32 0;
#X connect 40 13 33 0;
#X connect 40 14 34 0;
#X connect 40 15 35 0;
#X connect 40 16 36 0;
#X connect 40 17 37 0;
#X connect 40 18 38 0;
#X connect 40 19 39 0;
#X connect 40 20 62 0;
#X connect 41 0 117 0;
#X connect 42 0 116 0;
#X connect 43 0 116 0;
#X connect 44 0 116 0;
#X connect 45 0 116 0;
#X connect 46 0 116 0;
#X connect 47 0 116 0;
#X connect 48 0 116 0;
#X connect 49 0 116 0;
#X connect 50 0 116 0;
#X connect 51 0 116 0;
#X connect 52 0 116 0;
#X connect 53 0 116 0;
#X connect 54 0 116 0;
#X connect 55 0 116 0;
#X connect 56 0 116 0;
#X connect 57 0 116 0;
#X connect 58 0 116 0;
#X connect 59 0 116 0;
#X connect 60 0 116 0;
#X connect 61 0 116 0;
#X connect 62 0 61 0;
#X connect 62 1 42 0;
#X connect 62 2 43 0;
#X connect 62 3 44 0;
#X connect 62 4 45 0;
#X connect 62 5 46 0;
#X connect 62 6 47 0;
#X connect 62 7 48 0;
#X connect 62 8 49 0;
#X connect 62 9 50 0;
#X connect 62 10 51 0;
#X connect 62 11 52 0;
#X connect 62 12 53 0;
#X connect 62 13 54 0;
#X connect 62 14 55 0;
#X connect 62 15 56 0;
#X connect 62 16 57 0;
#X connect 62 17 58 0;
#X connect 62 18 59 0;
#X connect 62 19 60 0;
#X connect 62 20 83 0;
#X connect 63 0 116 0;
#X connect 64 0 116 0;
#X connect 65 0 116 0;
#X connect 66 0 116 0;
#X connect 67 0 116 0;
#X connect 68 0 116 0;
#X connect 69 0 116 0;
#X connect 70 0 116 0;
#X connect 71 0 116 0;
#X connect 72 0 116 0;
#X connect 73 0 116 0;
#X connect 74 0 116 0;
#X connect 75 0 116 0;
#X connect 76 0 116 0;
#X connect 77 0 116 0;
#X connect 78 0 116 0;
#X connect 79 0 116 0;
#X connect 80 0 116 0;
#X connect 81 0 116 0;
#X connect 82 0 116 0;
#X connect 83 0 82 0;
#X connect 83 1 63 0;
#X connect 83 2 64 0;
#X connect 83 3 65 0;
#X connect 83 4 66 0;
#X connect 83 5 67 0;
#X connect 83 6 68 0;
#X connect 83 7 69 0;
#X connect 83 8 70 0;
#X connect 83 9 71 0;
#X connect 83 10 72 0;
#X connect 83 11 73 0;
#X connect 83 12 74 0;
#X connect 83 13 75 0;
#X connect 83 14 76 0;
#X connect 83 15 77 0;
#X connect 83 16 78 0;
#X connect 83 17 79 0;
#X connect 83 18 80 0;
#X connect 83 19 81 0;
#X connect 83 20 104 0;
#X connect 84 0 115 0;
#X connect 85 0 115 0;
#X connect 86 0 115 0;
#X connect 87 0 115 0;
#X connect 88 0 115 0;
#X connect 89 0 115 0;
#X connect 90 0 115 0;
#X connect 91 0 115 0;
#X connect 92 0 115 0;
#X connect 93 0 115 0;
#X connect 94 0 115 0;
#X connect 95 0 115 0;
#X connect 96 0 115 0;
#X connect 97 0 115 0;
#X connect 98 0 115 0;
#X connect 99 0 115 0;
#X connect 100 0 115 0;
#X connect 101 0 115 0;
#X connect 102 0 115 0;
#X connect 103 0 115 0;
#X connect 104 0 103 0;
#X connect 104 1 84 0;
#X connect 104 2 85 0;
#X connect 104 3 86 0;
#X connect 104 4 87 0;
#X connect 104 5 88 0;
#X connect 104 6 89 0;
#X connect 104 7 90 0;
#X connect 104 8 91 0;
#X connect 104 9 92 0;
#X connect 104 10 93 0;
#X connect 104 11 94 0;
#X connect 104 12 95 0;
#X connect 104 13 96 0;
#X connect 104 14 97 0;
#X connect 104 15 98 0;
#X connect 104 16 99 0;
#X connect 104 17 100 0;
#X connect 104 18 101 0;
#X connect 104 19 102 0;
#X connect 104 20 112 0;
#X connect 105 0 115 0;
#X connect 106 0 115 0;
#X connect 107 0 115 0;
#X connect 108 0 115 0;
#X connect 109 0 115 0;
#X connect 110 0 115 0;
#X connect 111 0 115 0;
#X connect 112 0 111 0;
#X connect 112 1 105 0;
#X connect 112 2 106 0;
#X connect 112 3 107 0;
#X connect 112 4 108 0;
#X connect 112 5 109 0;
#X connect 112 6 110 0;
#X connect 113 0 4 0;
#X connect 115 0 114 0;
#X connect 116 0 114 0;
#X connect 117 0 114 0;
