#N canvas 46 21 1491 657 12;
#X msg 42 104 1;
#X msg 73 104 11;
#X msg 105 104 14;
#X msg 137 104 17;
#X obj 42 80 route 1 2 3 4 5 6 7 8 9 10 11 12 13 14 15 16 17 18 19 20, f 91;
#X msg 168 104 20;
#X msg 960 128 128;
#X obj 676 104 route 21 22 23 24 25 26 27 28 29 30 31 32 33 34 35 36 37 38 39 40, f 91;
#X obj 186 234 route 41 42 43 44 45 46 47 48 49 50 51 52 53 54 55 56 57 58 59 60, f 91;
#X msg 851 282 278;
#X msg 883 282 282;
#X msg 915 282 285;
#X msg 946 282 287;
#X msg 977 282 290;
#X msg 1009 282 293;
#X msg 1041 282 296;
#X msg 1073 282 302;
#X msg 1104 282 305;
#X msg 1136 282 309;
#X msg 1168 282 311;
#X msg 1199 282 316;
#X msg 1230 282 318;
#X msg 1262 282 321;
#X msg 1294 282 324;
#X msg 1327 282 331;
#X msg 1358 282 335;
#X msg 1390 282 339;
#X msg 1422 282 342;
#X obj 820 258 route 61 62 63 64 65 66 67 68 69 70 71 72 73 74 75 76 77 78 79 80, f 91;
#X msg 427 435 349;
#X msg 459 435 352;
#X msg 491 435 355;
#X msg 522 435 357;
#X msg 553 435 361;
#X msg 585 435 363;
#X msg 617 435 365;
#X msg 649 435 368;
#X msg 680 435 372;
#X msg 712 435 377;
#X msg 744 435 379;
#X msg 775 435 382;
#X msg 806 435 387;
#X msg 838 435 394;
#X msg 870 435 397;
#X msg 903 435 401;
#X msg 934 435 407;
#X msg 966 435 411;
#X msg 998 435 415;
#X msg 395 435 345;
#X obj 396 411 route 81 82 83 84 85 86 87 88 89 90 91 92 93 94 95 96 97 98 99 100, f 91;
#X msg 1061 459 422;
#X msg 1093 459 426;
#X msg 1125 459 432;
#X msg 1156 459 439;
#X msg 1187 459 442;
#X msg 1219 459 444;
#X msg 1029 459 417;
#X obj 1030 435 route 101 102 103 104 105 106 107, f 35;
#X obj 42 38 inlet;
#X obj 117 630 outlet;
#X obj 230 561 - 1;
#X obj 314 405 - 1;
#X obj 129 231 - 1;
#X msg 199 104 23;
#X msg 231 104 31;
#X msg 263 104 33;
#X msg 295 104 38;
#X msg 326 104 41;
#X msg 358 104 47;
#X msg 390 104 58;
#X msg 421 104 65;
#X text 48 58 1 2 3 4 5 6 7 8 9 10 11 12 13;
#X text 461 58 14 15 16 17 18 19 20;
#X msg 452 104 69;
#X msg 484 104 73;
#X msg 516 104 75;
#X msg 549 104 78;
#X msg 580 104 81;
#X msg 612 104 84;
#X msg 644 104 86;
#X text 693 77 21 22 23 24 25 26 27 28 29 30 31 32 33 34;
#X text 1129 78 35 36 37 38 39 40;
#X msg 675 128 93;
#X msg 707 128 99;
#X msg 739 128 101;
#X msg 771 128 104;
#X msg 802 128 107;
#X msg 833 128 113;
#X msg 865 128 115;
#X msg 897 128 118;
#X msg 929 128 121;
#X msg 992 128 126;
#X msg 1024 128 130;
#X msg 1055 128 139;
#X msg 1086 128 142;
#X msg 1118 128 145;
#X msg 1150 128 152;
#X msg 1183 128 156;
#X msg 1214 128 158;
#X msg 1246 128 163;
#X msg 1278 128 166;
#X text 186 283 41 42 43 44 45 46 47 48 49 50 51 52 53;
#X text 597 283 54 55 56 57 58 59 60;
#X msg 185 258 171;
#X msg 217 258 177;
#X msg 249 258 184;
#X msg 281 258 187;
#X msg 312 258 191;
#X msg 343 258 200;
#X msg 375 258 202;
#X msg 407 258 205;
#X msg 439 258 209;
#X msg 470 258 214;
#X msg 502 258 219;
#X msg 534 258 221;
#X msg 565 258 225;
#X msg 596 258 231;
#X msg 628 258 233;
#X msg 660 258 240;
#X msg 693 258 256;
#X msg 724 258 259;
#X msg 756 258 263;
#X msg 788 258 268;
#X msg 819 282 270;
#X connect 0 0 62 0;
#X connect 1 0 62 0;
#X connect 2 0 62 0;
#X connect 3 0 62 0;
#X connect 4 0 0 0;
#X connect 4 1 1 0;
#X connect 4 2 2 0;
#X connect 4 3 3 0;
#X connect 4 4 5 0;
#X connect 4 5 63 0;
#X connect 4 6 64 0;
#X connect 4 7 65 0;
#X connect 4 8 66 0;
#X connect 4 9 67 0;
#X connect 4 10 68 0;
#X connect 4 11 69 0;
#X connect 4 12 70 0;
#X connect 4 13 73 0;
#X connect 4 14 74 0;
#X connect 4 15 75 0;
#X connect 4 16 76 0;
#X connect 4 17 77 0;
#X connect 4 18 78 0;
#X connect 4 19 79 0;
#X connect 4 20 7 0;
#X connect 5 0 62 0;
#X connect 6 0 62 0;
#X connect 7 0 82 0;
#X connect 7 1 83 0;
#X connect 7 2 84 0;
#X connect 7 3 85 0;
#X connect 7 4 86 0;
#X connect 7 5 87 0;
#X connect 7 6 88 0;
#X connect 7 7 89 0;
#X connect 7 8 90 0;
#X connect 7 9 6 0;
#X connect 7 10 91 0;
#X connect 7 11 92 0;
#X connect 7 12 93 0;
#X connect 7 13 94 0;
#X connect 7 14 95 0;
#X connect 7 15 96 0;
#X connect 7 16 97 0;
#X connect 7 17 98 0;
#X connect 7 18 99 0;
#X connect 7 19 100 0;
#X connect 7 20 8 0;
#X connect 8 0 103 0;
#X connect 8 1 104 0;
#X connect 8 2 105 0;
#X connect 8 3 106 0;
#X connect 8 4 107 0;
#X connect 8 5 108 0;
#X connect 8 6 109 0;
#X connect 8 7 110 0;
#X connect 8 8 111 0;
#X connect 8 9 112 0;
#X connect 8 10 113 0;
#X connect 8 11 114 0;
#X connect 8 12 115 0;
#X connect 8 13 116 0;
#X connect 8 14 117 0;
#X connect 8 15 118 0;
#X connect 8 16 119 0;
#X connect 8 17 120 0;
#X connect 8 18 121 0;
#X connect 8 19 122 0;
#X connect 8 20 28 0;
#X connect 9 0 61 0;
#X connect 10 0 61 0;
#X connect 11 0 61 0;
#X connect 12 0 61 0;
#X connect 13 0 61 0;
#X connect 14 0 61 0;
#X connect 15 0 61 0;
#X connect 16 0 61 0;
#X connect 17 0 61 0;
#X connect 18 0 61 0;
#X connect 19 0 61 0;
#X connect 20 0 61 0;
#X connect 21 0 61 0;
#X connect 22 0 61 0;
#X connect 23 0 61 0;
#X connect 24 0 61 0;
#X connect 25 0 61 0;
#X connect 26 0 61 0;
#X connect 27 0 61 0;
#X connect 28 0 123 0;
#X connect 28 1 9 0;
#X connect 28 2 10 0;
#X connect 28 3 11 0;
#X connect 28 4 12 0;
#X connect 28 5 13 0;
#X connect 28 6 14 0;
#X connect 28 7 15 0;
#X connect 28 8 16 0;
#X connect 28 9 17 0;
#X connect 28 10 18 0;
#X connect 28 11 19 0;
#X connect 28 12 20 0;
#X connect 28 13 21 0;
#X connect 28 14 22 0;
#X connect 28 15 23 0;
#X connect 28 16 24 0;
#X connect 28 17 25 0;
#X connect 28 18 26 0;
#X connect 28 19 27 0;
#X connect 28 20 49 0;
#X connect 29 0 60 0;
#X connect 30 0 60 0;
#X connect 31 0 60 0;
#X connect 32 0 60 0;
#X connect 33 0 60 0;
#X connect 34 0 60 0;
#X connect 35 0 60 0;
#X connect 36 0 60 0;
#X connect 37 0 60 0;
#X connect 38 0 60 0;
#X connect 39 0 60 0;
#X connect 40 0 60 0;
#X connect 41 0 60 0;
#X connect 42 0 60 0;
#X connect 43 0 60 0;
#X connect 44 0 60 0;
#X connect 45 0 60 0;
#X connect 46 0 60 0;
#X connect 47 0 60 0;
#X connect 48 0 60 0;
#X connect 49 0 48 0;
#X connect 49 1 29 0;
#X connect 49 2 30 0;
#X connect 49 3 31 0;
#X connect 49 4 32 0;
#X connect 49 5 33 0;
#X connect 49 6 34 0;
#X connect 49 7 35 0;
#X connect 49 8 36 0;
#X connect 49 9 37 0;
#X connect 49 10 38 0;
#X connect 49 11 39 0;
#X connect 49 12 40 0;
#X connect 49 13 41 0;
#X connect 49 14 42 0;
#X connect 49 15 43 0;
#X connect 49 16 44 0;
#X connect 49 17 45 0;
#X connect 49 18 46 0;
#X connect 49 19 47 0;
#X connect 49 20 57 0;
#X connect 50 0 60 0;
#X connect 51 0 60 0;
#X connect 52 0 60 0;
#X connect 53 0 60 0;
#X connect 54 0 60 0;
#X connect 55 0 60 0;
#X connect 56 0 60 0;
#X connect 57 0 56 0;
#X connect 57 1 50 0;
#X connect 57 2 51 0;
#X connect 57 3 52 0;
#X connect 57 4 53 0;
#X connect 57 5 54 0;
#X connect 57 6 55 0;
#X connect 58 0 4 0;
#X connect 60 0 59 0;
#X connect 61 0 59 0;
#X connect 62 0 59 0;
#X connect 63 0 62 0;
#X connect 64 0 62 0;
#X connect 65 0 62 0;
#X connect 66 0 62 0;
#X connect 67 0 62 0;
#X connect 68 0 62 0;
#X connect 69 0 62 0;
#X connect 70 0 62 0;
#X connect 73 0 62 0;
#X connect 74 0 62 0;
#X connect 75 0 62 0;
#X connect 76 0 62 0;
#X connect 77 0 62 0;
#X connect 78 0 62 0;
#X connect 79 0 62 0;
#X connect 82 0 62 0;
#X connect 83 0 62 0;
#X connect 84 0 62 0;
#X connect 85 0 62 0;
#X connect 86 0 62 0;
#X connect 87 0 62 0;
#X connect 88 0 62 0;
#X connect 89 0 62 0;
#X connect 90 0 62 0;
#X connect 91 0 62 0;
#X connect 92 0 62 0;
#X connect 93 0 62 0;
#X connect 94 0 62 0;
#X connect 95 0 62 0;
#X connect 96 0 62 0;
#X connect 97 0 62 0;
#X connect 98 0 62 0;
#X connect 99 0 62 0;
#X connect 100 0 62 0;
#X connect 103 0 61 0;
#X connect 104 0 61 0;
#X connect 105 0 61 0;
#X connect 106 0 61 0;
#X connect 107 0 61 0;
#X connect 108 0 61 0;
#X connect 109 0 61 0;
#X connect 110 0 61 0;
#X connect 111 0 61 0;
#X connect 112 0 61 0;
#X connect 113 0 61 0;
#X connect 114 0 61 0;
#X connect 115 0 61 0;
#X connect 116 0 61 0;
#X connect 117 0 61 0;
#X connect 118 0 61 0;
#X connect 119 0 61 0;
#X connect 120 0 61 0;
#X connect 121 0 61 0;
#X connect 122 0 61 0;
#X connect 123 0 61 0;
