#N canvas 1080 218 369 368 12;
#X obj 26 161 qlist;
#N canvas 1489 158 191 247 kontroll 1;
#X msg 41 104 tempo \$1;
#X obj 41 79 / 60;
#X obj 41 53 r tem;
#X obj 31 26 r starter;
#X msg 52 155 rewind;
#X obj 52 130 r stoper;
#X obj 31 185 outlet;
#X connect 0 0 6 0;
#X connect 1 0 0 0;
#X connect 2 0 1 0;
#X connect 3 0 6 0;
#X connect 4 0 6 0;
#X connect 5 0 4 0;
#X restore 26 27 pd kontroll;
#X obj 38 53 loadbang;
#X obj 179 203 print done;
#X obj 38 79 symbol \$1;
#X msg 38 105 read \$1;
#X obj 58 133 print qlist-read;
#X obj 169 227 s done;
#X obj 46 307 del, f 6;
#X obj 16 230 del 1;
#X msg 46 331 next;
#X obj 96 245 spigot;
#X msg 267 265 0;
#X obj 29 278 spigot;
#X obj 206 133 r starter;
#X msg 206 159 1;
#X msg 212 82 tempo \$1 msec;
#X obj 211 50 expr 1/($f1/60);
#X obj 275 230 r stoper;
#X obj 212 19 r tem;
#X obj 284 163 r moveto;
#X msg 284 187 next 1;
#X connect 0 0 9 0;
#X connect 0 1 3 0;
#X connect 0 1 7 0;
#X connect 0 1 11 0;
#X connect 1 0 0 0;
#X connect 2 0 4 0;
#X connect 4 0 5 0;
#X connect 5 0 6 0;
#X connect 5 0 0 0;
#X connect 8 0 10 0;
#X connect 9 0 13 0;
#X connect 10 0 0 0;
#X connect 11 0 8 1;
#X connect 12 0 11 1;
#X connect 12 0 13 1;
#X connect 13 0 8 0;
#X connect 14 0 15 0;
#X connect 15 0 11 1;
#X connect 15 0 13 1;
#X connect 16 0 8 0;
#X connect 16 0 9 0;
#X connect 17 0 16 0;
#X connect 18 0 12 0;
#X connect 19 0 17 0;
#X connect 20 0 21 0;
#X connect 21 0 0 0;
