#N canvas 2634 75 206 242 12;
#X obj 36 43 inlet, f 6;
#X obj 36 75 t b;
#X obj 36 103 f 1;
#X obj 99 105 + 1;
#X msg 99 151 1;
#X obj 36 127 outlet;
#X obj 99 127 sel \$1;
#X connect 0 0 1 0;
#X connect 1 0 2 0;
#X connect 2 0 3 0;
#X connect 2 0 5 0;
#X connect 3 0 2 1;
#X connect 3 0 6 0;
#X connect 4 0 2 1;
#X connect 6 0 4 0;
