#N canvas 474 295 1624 997 12;
#X obj 109 183 qlist;
#X msg 151 139 read sts-qlist-ens.txt;
#X obj 160 508 r mn;
#X msg 202 58 rewind;
#X obj 157 660 print;
#X obj 287 462 + 1;
#X obj 167 368 bng 15 250 50 0 empty empty empty 17 7 0 10 #fcfcfc
#000000 #000000;
#X obj 264 534 list prepend set;
#X obj 264 558 list trim;
#X obj 215 639 list trim;
#X obj 215 663 list-loc;
#X obj 96 286 del, f 6;
#X obj 69 227 del 1;
#X msg 96 310 next;
#X msg 393 175 tempo \$1 msec;
#X obj 392 143 expr 1/($f1/60);
#X msg 428 72 400;
#X obj 230 451 f 1;
#X obj 218 617 list append;
#X connect 0 0 12 0;
#X connect 0 0 11 1;
#X connect 1 0 0 0;
#X connect 2 0 18 0;
#X connect 3 0 0 0;
#X connect 5 0 17 1;
#X connect 6 0 17 0;
#X connect 7 0 8 0;
#X connect 8 0 18 1;
#X connect 9 0 4 0;
#X connect 9 0 10 0;
#X connect 11 0 13 0;
#X connect 12 0 11 0;
#X connect 13 0 6 0;
#X connect 13 0 0 0;
#X connect 14 0 11 0;
#X connect 15 0 14 0;
#X connect 16 0 15 0;
#X connect 17 0 5 0;
#X connect 17 0 7 0;
#X connect 18 0 9 0;
