#N canvas 2420 198 565 490 12;
#X obj 20 9 inlet~;
#X obj 106 8 inlet;
#X obj 281 10 inlet;
#N canvas 1020 55 332 217 \$0-impin 0;
#X obj 26 29 inlet~;
#X obj 27 146 outlet~;
#X obj 26 118 delwrite~ \$0-imp-to-fing 300;
#X obj 82 87 delwrite~ \$0-imp-to-brid 300;
#X connect 0 0 2 0;
#X connect 0 0 3 0;
#X restore 20 33 pd \$0-impin;
#X obj 230 10 inlet;
#N canvas 2457 478 448 447 \$0-impout 0;
#X obj 13 11 inlet~;
#X obj 72 14 inlet;
#X obj 240 14 inlet;
#X obj 72 187 f;
#X obj 72 231 * 0.7;
#X obj 72 339 *~ \$2;
#X obj 72 363 lop~ 5000;
#X obj 72 387 outlet~;
#X obj 240 68 * -0.005;
#X obj 323 13 loadbang;
#X obj 323 37 f \$1;
#X obj 240 92 + 0.55;
#X obj 240 116 t b f;
#X obj 200 151 * -1;
#X obj 200 175 + 1;
#X obj 252 231 * 0.3;
#X obj 252 339 *~ \$3;
#X obj 252 363 lop~ 15000;
#X obj 252 387 outlet~;
#X obj 104 311 r \$0-fing-feedback;
#X obj 284 312 r \$0-brid-feedback;
#X obj 72 255 delread4~ \$0-imp-to-fing;
#X obj 252 255 delread4~ \$0-imp-to-brid;
#X connect 1 0 3 0;
#X connect 2 0 8 0;
#X connect 3 0 4 0;
#X connect 3 0 15 0;
#X connect 4 0 21 0;
#X connect 5 0 6 0;
#X connect 6 0 7 0;
#X connect 8 0 11 0;
#X connect 9 0 10 0;
#X connect 10 0 8 0;
#X connect 11 0 12 0;
#X connect 12 0 3 0;
#X connect 12 1 13 0;
#X connect 12 1 15 1;
#X connect 13 0 14 0;
#X connect 14 0 4 1;
#X connect 15 0 22 0;
#X connect 16 0 17 0;
#X connect 17 0 18 0;
#X connect 19 0 5 1;
#X connect 20 0 16 1;
#X connect 21 0 5 0;
#X connect 22 0 16 0;
#X restore 20 145 pd \$0-impout;
#N canvas 2413 286 135 200 \$0-ptodel 0;
#X obj 37 17 inlet;
#X obj 48 159 s \$0-del;
#X obj 36 50 mtof;
#X obj 36 73 t b f;
#X obj 48 137 /;
#X msg 21 104 500;
#X connect 0 0 2 0;
#X connect 2 0 3 0;
#X connect 3 0 5 0;
#X connect 3 1 4 1;
#X connect 4 0 1 0;
#X connect 5 0 4 0;
#X restore 106 32 pd \$0-ptodel;
#X obj 60 104 r \$0-del;
#X obj 34 337 r \$0-del;
#X obj 34 407 *~ \$2;
#X obj 66 384 r \$0-fing-feedback;
#X obj 121 145 r \$0-del;
#X obj 121 217 *~ \$3;
#X obj 121 241 lop~ 15000;
#X obj 153 193 r \$0-brid-feedback;
#X obj 121 275 *~ 0.3;
#N canvas 2376 358 282 210 \$0-resonance 0;
#X obj 13 11 inlet~;
#X obj 13 166 outlet~;
#X obj 13 84 bp~ 70 3.5;
#X obj 100 84 bp~ 110 3.5;
#X obj 189 84 bp~ 390 3.5;
#X obj 13 106 *~ 0.3;
#X obj 100 106 *~ 0.5;
#X obj 189 106 *~ 0.2;
#X connect 0 0 2 0;
#X connect 0 0 3 0;
#X connect 0 0 4 0;
#X connect 2 0 5 0;
#X connect 3 0 6 0;
#X connect 4 0 7 0;
#X connect 5 0 1 0;
#X connect 6 0 1 0;
#X connect 7 0 1 0;
#X restore 173 275 pd \$0-resonance;
#X obj 121 310 outlet~;
#X obj 421 10 inlet;
#X obj 281 34 s \$0-fing-feedback;
#X obj 421 34 s \$0-brid-feedback;
#X obj 340 122 block~ 1;
#X obj 34 431 lop~ 5000;
#X obj 121 169 delread4~ \$0-fing-to-brid;
#X obj 34 361 delread4~ \$0-brid-to-fing;
#X obj 102 337 delwrite~ \$0-brid-to-fing 1000;
#X obj 20 456 delwrite~ \$0-fing-to-brid 1000;
#X connect 0 0 3 0;
#X connect 1 0 6 0;
#X connect 2 0 19 0;
#X connect 3 0 5 0;
#X connect 4 0 5 2;
#X connect 5 0 26 0;
#X connect 5 1 25 0;
#X connect 7 0 5 1;
#X connect 8 0 24 0;
#X connect 9 0 22 0;
#X connect 10 0 9 1;
#X connect 11 0 23 0;
#X connect 12 0 13 0;
#X connect 13 0 15 0;
#X connect 13 0 16 0;
#X connect 13 0 25 0;
#X connect 14 0 12 1;
#X connect 15 0 17 0;
#X connect 16 0 17 0;
#X connect 18 0 20 0;
#X connect 22 0 26 0;
#X connect 23 0 12 0;
#X connect 24 0 9 0;
