#N canvas 2256 143 825 643 12;
#N canvas 2493 145 474 598 impulse-selector 0;
#X obj 351 82 bng 15 250 50 0 empty empty clear 17 7 0 10 -262144 -1
-1;
#X text 153 41 single-sample impulse:;
#X text 167 61 noise-burst impulse:;
#X obj 351 102 bng 15 250 50 0 empty empty clear 17 7 0 10 -262144
-1 -1;
#X obj 351 122 bng 15 250 50 0 empty empty clear 17 7 0 10 -262144
-1 -1;
#X obj 351 142 bng 15 250 50 0 empty empty clear 17 7 0 10 -262144
-1 -1;
#X obj 351 162 bng 15 250 50 0 empty empty clear 17 7 0 10 -262144
-1 -1;
#X obj 351 182 bng 15 250 50 0 empty empty clear 17 7 0 10 -262144
-1 -1;
#X obj 351 202 bng 15 250 50 0 empty empty clear 17 7 0 10 -262144
-1 -1;
#X obj 351 222 bng 15 250 50 0 empty empty clear 17 7 0 10 -262144
-1 -1;
#X obj 311 82 tgl 15 0 empty empty sel 17 7 0 10 -262144 -1 -1 0 1
;
#X obj 311 42 tgl 15 0 empty empty sel 17 7 0 10 -262144 -1 -1 0 1
;
#X obj 311 62 tgl 15 0 empty empty sel 17 7 0 10 -262144 -1 -1 0 1
;
#X obj 311 142 tgl 15 0 empty empty sel 17 7 0 10 -262144 -1 -1 0 1
;
#X obj 311 102 tgl 15 0 empty empty sel 17 7 0 10 -262144 -1 -1 0 1
;
#X obj 311 122 tgl 15 0 empty empty sel 17 7 0 10 -262144 -1 -1 0 1
;
#X obj 311 182 tgl 15 0 empty empty sel 17 7 0 10 -262144 -1 -1 0 1
;
#X obj 311 162 tgl 15 0 empty empty sel 17 7 0 10 -262144 -1 -1 0 1
;
#X obj 311 202 tgl 15 0 empty empty sel 17 7 0 10 -262144 -1 -1 0 1
;
#X obj 311 222 tgl 15 0 empty empty sel 17 7 0 10 -262144 -1 -1 0 1
;
#X text 244 81 impulse2:;
#X text 244 101 impulse3:;
#X text 244 121 impulse4:;
#X text 244 141 impulse5:;
#X text 244 161 impulse6:;
#X text 245 181 impulse7:;
#X text 244 201 impulse8:;
#X text 244 221 impulse9:;
#X obj 407 97 s 2clear;
#X obj 407 117 s 3clear;
#X obj 407 137 s 4clear;
#X obj 407 157 s 5clear;
#X obj 407 177 s 6clear;
#X obj 407 197 s 7clear;
#X obj 407 217 s 8clear;
#X obj 407 237 s 9clear;
#X obj 17 23 r back0;
#X obj 17 43 r back1;
#X obj 17 63 r back2;
#X obj 17 83 r back3;
#X obj 17 103 r back4;
#X obj 17 123 r back5;
#X obj 17 143 r back6;
#X obj 17 163 r back7;
#X obj 17 183 r back8;
#X obj 17 203 r back9;
#X obj 87 57 s send0;
#X obj 87 77 s send1;
#X obj 87 97 s send2;
#X obj 87 117 s send3;
#X obj 87 137 s send4;
#X obj 87 157 s send5;
#X obj 87 177 s send6;
#X obj 87 197 s send7;
#X obj 87 217 s send8;
#X obj 87 237 s send9;
#X obj 16 273 r send0;
#N canvas 2229 399 215 307 c0 0;
#X obj 17 14 inlet;
#X obj 148 112 s back1;
#X obj 148 132 s back2;
#X obj 148 152 s back3;
#X obj 148 172 s back4;
#X obj 148 192 s back5;
#X obj 148 212 s back6;
#X obj 148 232 s back7;
#X obj 148 252 s back8;
#X obj 148 272 s back9;
#X msg 55 68 0;
#X obj 17 38 sel 1;
#X obj 17 272 outlet;
#X msg 17 246 0;
#X connect 0 0 11 0;
#X connect 10 0 1 0;
#X connect 10 0 2 0;
#X connect 10 0 3 0;
#X connect 10 0 4 0;
#X connect 10 0 5 0;
#X connect 10 0 6 0;
#X connect 10 0 7 0;
#X connect 10 0 8 0;
#X connect 10 0 9 0;
#X connect 11 0 10 0;
#X connect 11 0 13 0;
#X connect 13 0 12 0;
#X restore 16 297 pd c0;
#X obj 16 321 s \$0-out;
#X obj 372 377 r \$0-out;
#X obj 86 321 s \$0-out;
#X obj 156 321 s \$0-out;
#X obj 226 321 s \$0-out;
#X obj 296 321 s \$0-out;
#X obj 86 273 r send1;
#X obj 156 273 r send2;
#X obj 226 273 r send3;
#X obj 296 273 r send4;
#N canvas 1680 25 215 307 c1 0;
#X obj 17 14 inlet;
#X obj 148 132 s back2;
#X obj 148 152 s back3;
#X obj 148 172 s back4;
#X obj 148 192 s back5;
#X obj 148 212 s back6;
#X obj 148 232 s back7;
#X obj 148 252 s back8;
#X obj 148 272 s back9;
#X msg 55 68 0;
#X obj 17 38 sel 1;
#X obj 17 272 outlet;
#X msg 17 246 1;
#X obj 148 92 s back0;
#X connect 0 0 10 0;
#X connect 9 0 1 0;
#X connect 9 0 2 0;
#X connect 9 0 3 0;
#X connect 9 0 4 0;
#X connect 9 0 5 0;
#X connect 9 0 6 0;
#X connect 9 0 7 0;
#X connect 9 0 8 0;
#X connect 9 0 13 0;
#X connect 10 0 9 0;
#X connect 10 0 12 0;
#X connect 12 0 11 0;
#X restore 86 297 pd c1;
#N canvas 1896 25 215 307 c2 0;
#X obj 17 14 inlet;
#X obj 148 112 s back1;
#X obj 148 152 s back3;
#X obj 148 172 s back4;
#X obj 148 192 s back5;
#X obj 148 212 s back6;
#X obj 148 232 s back7;
#X obj 148 252 s back8;
#X obj 148 272 s back9;
#X msg 55 68 0;
#X obj 17 38 sel 1;
#X obj 17 272 outlet;
#X obj 148 92 s back0;
#X msg 17 246 2;
#X connect 0 0 10 0;
#X connect 9 0 1 0;
#X connect 9 0 2 0;
#X connect 9 0 3 0;
#X connect 9 0 4 0;
#X connect 9 0 5 0;
#X connect 9 0 6 0;
#X connect 9 0 7 0;
#X connect 9 0 8 0;
#X connect 9 0 12 0;
#X connect 10 0 9 0;
#X connect 10 0 13 0;
#X connect 13 0 11 0;
#X restore 156 297 pd c2;
#N canvas 2112 25 215 307 c3 0;
#X obj 17 14 inlet;
#X obj 147 112 s back1;
#X obj 147 132 s back2;
#X obj 147 192 s back5;
#X obj 147 212 s back6;
#X obj 147 232 s back7;
#X obj 147 252 s back8;
#X obj 147 272 s back9;
#X msg 55 68 0;
#X obj 17 38 sel 1;
#X obj 17 272 outlet;
#X obj 147 92 s back0;
#X obj 147 172 s back4;
#X msg 17 246 3;
#X connect 0 0 9 0;
#X connect 8 0 1 0;
#X connect 8 0 2 0;
#X connect 8 0 3 0;
#X connect 8 0 4 0;
#X connect 8 0 5 0;
#X connect 8 0 6 0;
#X connect 8 0 7 0;
#X connect 8 0 11 0;
#X connect 8 0 12 0;
#X connect 9 0 8 0;
#X connect 9 0 13 0;
#X connect 13 0 10 0;
#X restore 226 297 pd c3;
#N canvas 2328 25 215 307 c4 0;
#X obj 17 14 inlet;
#X obj 147 112 s back1;
#X obj 147 132 s back2;
#X obj 147 152 s back3;
#X obj 147 212 s back6;
#X obj 147 232 s back7;
#X obj 147 252 s back8;
#X obj 147 272 s back9;
#X msg 55 68 0;
#X obj 17 38 sel 1;
#X obj 17 272 outlet;
#X obj 147 92 s back0;
#X obj 147 192 s back5;
#X msg 17 246 4;
#X connect 0 0 9 0;
#X connect 8 0 1 0;
#X connect 8 0 2 0;
#X connect 8 0 3 0;
#X connect 8 0 4 0;
#X connect 8 0 5 0;
#X connect 8 0 6 0;
#X connect 8 0 7 0;
#X connect 8 0 11 0;
#X connect 8 0 12 0;
#X connect 9 0 8 0;
#X connect 9 0 13 0;
#X connect 13 0 10 0;
#X restore 296 297 pd c4;
#X obj 16 401 s \$0-out;
#X obj 86 401 s \$0-out;
#X obj 156 401 s \$0-out;
#X obj 226 401 s \$0-out;
#X obj 296 401 s \$0-out;
#X obj 16 353 r send5;
#N canvas 2544 25 215 307 c5 0;
#X obj 17 14 inlet;
#X obj 148 112 s back1;
#X obj 148 132 s back2;
#X obj 148 152 s back3;
#X obj 148 172 s back4;
#X obj 148 232 s back7;
#X obj 148 252 s back8;
#X obj 148 272 s back9;
#X msg 55 68 0;
#X obj 17 38 sel 1;
#X obj 17 272 outlet;
#X obj 148 92 s back0;
#X obj 148 212 s back6;
#X msg 17 246 5;
#X connect 0 0 9 0;
#X connect 8 0 1 0;
#X connect 8 0 2 0;
#X connect 8 0 3 0;
#X connect 8 0 4 0;
#X connect 8 0 5 0;
#X connect 8 0 6 0;
#X connect 8 0 7 0;
#X connect 8 0 11 0;
#X connect 8 0 12 0;
#X connect 9 0 8 0;
#X connect 9 0 13 0;
#X connect 13 0 10 0;
#X restore 16 377 pd c5;
#X obj 86 353 r send6;
#N canvas 2976 25 215 307 c7 0;
#X obj 17 14 inlet;
#X obj 148 112 s back1;
#X obj 148 132 s back2;
#X obj 148 152 s back3;
#X obj 148 172 s back4;
#X obj 148 192 s back5;
#X obj 148 212 s back6;
#X obj 148 252 s back8;
#X obj 148 272 s back9;
#X msg 55 68 0;
#X obj 17 38 sel 1;
#X obj 17 272 outlet;
#X obj 148 92 s back0;
#X msg 17 246 7;
#X connect 0 0 10 0;
#X connect 9 0 1 0;
#X connect 9 0 2 0;
#X connect 9 0 3 0;
#X connect 9 0 4 0;
#X connect 9 0 5 0;
#X connect 9 0 6 0;
#X connect 9 0 7 0;
#X connect 9 0 8 0;
#X connect 9 0 12 0;
#X connect 10 0 9 0;
#X connect 10 0 13 0;
#X connect 13 0 11 0;
#X restore 156 377 pd c7;
#N canvas 1343 443 215 307 c6 0;
#X obj 17 14 inlet;
#X obj 148 112 s back1;
#X obj 148 132 s back2;
#X obj 148 152 s back3;
#X obj 148 172 s back4;
#X obj 148 192 s back5;
#X obj 148 232 s back7;
#X obj 148 252 s back8;
#X obj 148 272 s back9;
#X msg 55 68 0;
#X obj 17 38 sel 1;
#X obj 17 272 outlet;
#X obj 148 92 s back0;
#X msg 17 246 6;
#X connect 0 0 10 0;
#X connect 9 0 1 0;
#X connect 9 0 2 0;
#X connect 9 0 3 0;
#X connect 9 0 4 0;
#X connect 9 0 5 0;
#X connect 9 0 6 0;
#X connect 9 0 7 0;
#X connect 9 0 8 0;
#X connect 9 0 12 0;
#X connect 10 0 9 0;
#X connect 10 0 13 0;
#X connect 13 0 11 0;
#X restore 86 377 pd c6;
#X obj 156 353 r send7;
#X obj 226 353 r send8;
#N canvas 3192 25 215 307 c8 0;
#X obj 17 14 inlet;
#X obj 137 112 s back1;
#X obj 137 132 s back2;
#X obj 137 152 s back3;
#X obj 137 172 s back4;
#X obj 137 192 s back5;
#X obj 137 212 s back6;
#X obj 137 232 s back7;
#X obj 137 272 s back9;
#X msg 55 68 0;
#X obj 17 38 sel 1;
#X obj 17 272 outlet;
#X obj 137 92 s back0;
#X msg 17 246 8;
#X connect 0 0 10 0;
#X connect 9 0 1 0;
#X connect 9 0 2 0;
#X connect 9 0 3 0;
#X connect 9 0 4 0;
#X connect 9 0 5 0;
#X connect 9 0 6 0;
#X connect 9 0 7 0;
#X connect 9 0 8 0;
#X connect 9 0 12 0;
#X connect 10 0 9 0;
#X connect 10 0 13 0;
#X connect 13 0 11 0;
#X restore 226 377 pd c8;
#X obj 296 353 r send9;
#N canvas 3385 25 215 307 c9 0;
#X obj 17 14 inlet;
#X obj 148 112 s back1;
#X obj 148 132 s back2;
#X obj 148 152 s back3;
#X obj 148 172 s back4;
#X obj 148 192 s back5;
#X obj 148 212 s back6;
#X obj 148 232 s back7;
#X obj 148 252 s back8;
#X msg 55 68 0;
#X obj 17 38 sel 1;
#X obj 17 272 outlet;
#X obj 148 92 s back0;
#X msg 17 248 9;
#X connect 0 0 10 0;
#X connect 9 0 1 0;
#X connect 9 0 2 0;
#X connect 9 0 3 0;
#X connect 9 0 4 0;
#X connect 9 0 5 0;
#X connect 9 0 6 0;
#X connect 9 0 7 0;
#X connect 9 0 8 0;
#X connect 9 0 12 0;
#X connect 10 0 9 0;
#X connect 10 0 13 0;
#X connect 13 0 11 0;
#X restore 296 377 pd c9;
#X obj 16 490 s \$0-o2;
#X obj 16 441 r 2clear;
#X obj 86 441 r 3clear;
#X obj 156 441 r 4clear;
#X obj 226 441 r 5clear;
#X obj 296 441 r 6clear;
#X obj 16 521 r 7clear;
#X obj 86 521 r 8clear;
#X obj 156 521 r 9clear;
#X msg 16 465 2;
#X obj 86 490 s \$0-o2;
#X msg 86 465 3;
#X obj 156 490 s \$0-o2;
#X obj 226 490 s \$0-o2;
#X msg 156 465 4;
#X msg 226 465 5;
#X obj 296 490 s \$0-o2;
#X msg 296 465 6;
#X obj 16 570 s \$0-o2;
#X obj 86 570 s \$0-o2;
#X obj 156 570 s \$0-o2;
#X msg 16 545 7;
#X msg 86 545 8;
#X msg 156 545 9;
#X obj 224 570 outlet;
#X obj 224 546 r \$0-o2;
#X obj 372 401 outlet;
#X obj 325 20 bng 15 250 50 0 empty empty norm 17 7 0 10 -262144 -1
-1;
#X obj 409 35 s normer;
#X connect 0 0 28 0;
#X connect 3 0 29 0;
#X connect 4 0 30 0;
#X connect 5 0 31 0;
#X connect 6 0 32 0;
#X connect 7 0 33 0;
#X connect 8 0 34 0;
#X connect 9 0 35 0;
#X connect 10 0 48 0;
#X connect 11 0 46 0;
#X connect 12 0 47 0;
#X connect 13 0 51 0;
#X connect 14 0 49 0;
#X connect 15 0 50 0;
#X connect 16 0 53 0;
#X connect 17 0 52 0;
#X connect 18 0 54 0;
#X connect 19 0 55 0;
#X connect 36 0 11 0;
#X connect 37 0 12 0;
#X connect 38 0 10 0;
#X connect 39 0 14 0;
#X connect 40 0 15 0;
#X connect 41 0 13 0;
#X connect 42 0 17 0;
#X connect 43 0 16 0;
#X connect 44 0 18 0;
#X connect 45 0 19 0;
#X connect 56 0 57 0;
#X connect 57 0 58 0;
#X connect 59 0 113 0;
#X connect 64 0 68 0;
#X connect 65 0 69 0;
#X connect 66 0 70 0;
#X connect 67 0 71 0;
#X connect 68 0 60 0;
#X connect 69 0 61 0;
#X connect 70 0 62 0;
#X connect 71 0 63 0;
#X connect 77 0 78 0;
#X connect 78 0 72 0;
#X connect 79 0 81 0;
#X connect 80 0 74 0;
#X connect 81 0 73 0;
#X connect 82 0 80 0;
#X connect 83 0 84 0;
#X connect 84 0 75 0;
#X connect 85 0 86 0;
#X connect 86 0 76 0;
#X connect 88 0 96 0;
#X connect 89 0 98 0;
#X connect 90 0 101 0;
#X connect 91 0 102 0;
#X connect 92 0 104 0;
#X connect 93 0 108 0;
#X connect 94 0 109 0;
#X connect 95 0 110 0;
#X connect 96 0 87 0;
#X connect 98 0 97 0;
#X connect 101 0 99 0;
#X connect 102 0 100 0;
#X connect 104 0 103 0;
#X connect 108 0 105 0;
#X connect 109 0 106 0;
#X connect 110 0 107 0;
#X connect 112 0 111 0;
#X connect 114 0 115 0;
#X coords 0 -1 1 1 250 240 1 150 10;
#X restore 6 7 pd impulse-selector;
#N canvas 615 452 301 486 kpst-control 0;
#X obj 22 38 bng 30 250 50 0 empty empty empty 17 7 0 10 -262144 -1
-1;
#X obj 258 38 tgl 30 0 empty empty empty 17 7 0 10 -262144 -1 -1 0
1;
#X floatatom 56 50 5 0 0 0 - - -;
#X floatatom 96 50 5 0 0 0 - - -;
#X floatatom 136 50 5 0 0 0 - - -;
#X floatatom 176 50 5 0 0 0 - - -;
#X floatatom 216 50 5 0 0 0 - - -;
#X obj 136 73 s pp;
#X obj 176 73 s ff;
#X obj 216 73 s bf;
#X obj 22 99 f;
#X obj 89 99 f;
#X obj 22 75 t b b, f 10;
#X obj 22 242 pack 0 0 0;
#X obj 22 267 route 1 2 3 4 5 6;
#N canvas 773 458 380 165 \$0-voice1 0;
#X obj 17 19 inlet;
#X obj 17 121 kpst-wrap1~, f 46;
#X obj 70 97 r isel;
#X obj 229 96 r pp;
#X obj 282 96 r ff;
#X obj 336 96 r bf;
#X obj 17 97 del 5;
#X obj 17 77 bng 15 250 50 0 empty empty empty 17 7 0 10 -262144 -1
-1;
#X obj 17 43 stripnote;
#X connect 0 0 8 0;
#X connect 2 0 1 1;
#X connect 3 0 1 4;
#X connect 4 0 1 5;
#X connect 5 0 1 6;
#X connect 6 0 1 0;
#X connect 7 0 6 0;
#X connect 8 0 7 0;
#X connect 8 0 1 3;
#X connect 8 1 1 2;
#X restore 22 408 pd \$0-voice1;
#X obj 22 433 catch~ out;
#X obj 22 457 outlet~;
#X obj 22 122 pack, f 10;
#X obj 22 218 poly 6 1, f 10;
#N canvas 2950 359 384 161 \$0-voice2 0;
#X obj 17 19 inlet;
#X obj 17 121 kpst-wrap1~, f 46;
#X obj 70 97 r isel;
#X obj 229 96 r pp;
#X obj 282 96 r ff;
#X obj 336 96 r bf;
#X obj 17 97 del 5;
#X obj 17 77 bng 15 250 50 0 empty empty empty 17 7 0 10 -262144 -1
-1;
#X obj 17 43 stripnote;
#X connect 0 0 8 0;
#X connect 2 0 1 1;
#X connect 3 0 1 4;
#X connect 4 0 1 5;
#X connect 5 0 1 6;
#X connect 6 0 1 0;
#X connect 7 0 6 0;
#X connect 8 0 7 0;
#X connect 8 0 1 3;
#X connect 8 1 1 2;
#X restore 41 385 pd \$0-voice2;
#N canvas 1305 416 374 154 \$0-voice3 0;
#X obj 17 19 inlet;
#X obj 17 121 kpst-wrap1~, f 46;
#X obj 70 97 r isel;
#X obj 229 96 r pp;
#X obj 282 96 r ff;
#X obj 336 96 r bf;
#X obj 17 97 del 5;
#X obj 17 77 bng 15 250 50 0 empty empty empty 17 7 0 10 -262144 -1
-1;
#X obj 17 43 stripnote;
#X connect 0 0 8 0;
#X connect 2 0 1 1;
#X connect 3 0 1 4;
#X connect 4 0 1 5;
#X connect 5 0 1 6;
#X connect 6 0 1 0;
#X connect 7 0 6 0;
#X connect 8 0 7 0;
#X connect 8 0 1 3;
#X connect 8 1 1 2;
#X restore 60 362 pd \$0-voice3;
#N canvas 2950 359 399 154 \$0-voice4 0;
#X obj 17 19 inlet;
#X obj 17 121 kpst-wrap1~, f 46;
#X obj 70 97 r isel;
#X obj 229 96 r pp;
#X obj 282 96 r ff;
#X obj 336 96 r bf;
#X obj 17 97 del 5;
#X obj 17 77 bng 15 250 50 0 empty empty empty 17 7 0 10 -262144 -1
-1;
#X obj 17 43 stripnote;
#X connect 0 0 8 0;
#X connect 2 0 1 1;
#X connect 3 0 1 4;
#X connect 4 0 1 5;
#X connect 5 0 1 6;
#X connect 6 0 1 0;
#X connect 7 0 6 0;
#X connect 8 0 7 0;
#X connect 8 0 1 3;
#X connect 8 1 1 2;
#X restore 80 339 pd \$0-voice4;
#N canvas 2950 359 381 167 \$0-voice5 0;
#X obj 17 19 inlet;
#X obj 17 121 kpst-wrap1~, f 46;
#X obj 70 97 r isel;
#X obj 229 96 r pp;
#X obj 282 96 r ff;
#X obj 336 96 r bf;
#X obj 17 97 del 5;
#X obj 17 77 bng 15 250 50 0 empty empty empty 17 7 0 10 -262144 -1
-1;
#X obj 17 43 stripnote;
#X connect 0 0 8 0;
#X connect 2 0 1 1;
#X connect 3 0 1 4;
#X connect 4 0 1 5;
#X connect 5 0 1 6;
#X connect 6 0 1 0;
#X connect 7 0 6 0;
#X connect 8 0 7 0;
#X connect 8 0 1 3;
#X connect 8 1 1 2;
#X restore 99 316 pd \$0-voice5;
#N canvas 2950 359 380 161 \$0-voice6 0;
#X obj 17 19 inlet;
#X obj 17 121 kpst-wrap1~, f 46;
#X obj 70 97 r isel;
#X obj 229 96 r pp;
#X obj 282 96 r ff;
#X obj 336 96 r bf;
#X obj 17 97 del 5;
#X obj 17 77 bng 15 250 50 0 empty empty empty 17 7 0 10 -262144 -1
-1;
#X obj 17 43 stripnote;
#X connect 0 0 8 0;
#X connect 2 0 1 1;
#X connect 3 0 1 4;
#X connect 4 0 1 5;
#X connect 5 0 1 6;
#X connect 6 0 1 0;
#X connect 7 0 6 0;
#X connect 8 0 7 0;
#X connect 8 0 1 3;
#X connect 8 1 1 2;
#X restore 118 293 pd \$0-voice6;
#X obj 32 145 notein, f 8;
#X obj 32 170 pack;
#X obj 32 194 spigot;
#X text 53 32 pitch;
#X text 93 32 vel;
#X text 133 32 place;
#X text 173 32 fin-f;
#X text 213 32 bri-f;
#X text 256 20 midi;
#X connect 0 0 12 0;
#X connect 1 0 27 1;
#X connect 2 0 10 1;
#X connect 3 0 11 1;
#X connect 4 0 7 0;
#X connect 5 0 8 0;
#X connect 6 0 9 0;
#X connect 10 0 18 0;
#X connect 11 0 18 1;
#X connect 12 0 10 0;
#X connect 12 1 11 0;
#X connect 13 0 14 0;
#X connect 14 0 15 0;
#X connect 14 1 20 0;
#X connect 14 2 21 0;
#X connect 14 3 22 0;
#X connect 14 4 23 0;
#X connect 14 5 24 0;
#X connect 16 0 17 0;
#X connect 18 0 19 0;
#X connect 19 0 13 0;
#X connect 19 1 13 1;
#X connect 19 2 13 2;
#X connect 25 0 26 0;
#X connect 25 1 26 1;
#X connect 26 0 27 0;
#X connect 27 0 19 0;
#X coords 0 -1 1 1 270 53 1 20 17;
#X restore 262 7 pd kpst-control;
#X obj 6 277 impulse-inspector;
#N canvas 2020 25 975 739 impulse-sampler 0;
#X obj 85 103 vu 15 120 empty empty -1 -8 0 10 -66577 -1 1 0;
#X obj 44 16 inlet~;
#N canvas 563 118 385 415 vu 0;
#X obj 59 129 env~ 1024;
#X obj 161 111 abs~;
#X obj 161 213 snapshot~;
#X obj 161 256 rmstodb;
#X obj 161 21 inlet~;
#X obj 161 288 - 100;
#X obj 59 287 - 100;
#X obj 59 361 outlet;
#X obj 161 361 outlet;
#X obj 239 89 expr 1000 / $f1;
#X floatatom 239 117 5 0 0 0 - - -;
#X obj 161 146 slop~ 0 0 0 0 1e+09;
#X obj 59 171 t f b;
#X obj 239 40 loadbang;
#X msg 239 64 500;
#X connect 0 0 12 0;
#X connect 1 0 11 0;
#X connect 2 0 3 0;
#X connect 3 0 5 0;
#X connect 4 0 0 0;
#X connect 4 0 1 0;
#X connect 5 0 8 0;
#X connect 6 0 7 0;
#X connect 9 0 10 0;
#X connect 10 0 11 3;
#X connect 11 0 2 0;
#X connect 12 0 6 0;
#X connect 12 1 2 0;
#X connect 13 0 14 0;
#X connect 14 0 9 0;
#X restore 84 76 pd vu;
#X obj 141 245 r isel;
#X obj 44 539 tabwrite~;
#X floatatom 210 178 5 0 0 0 - - -;
#X text 201 162 duration;
#X obj 134 180 bng 35 250 50 0 empty empty empty 17 7 0 10 -262144
-1 -1;
#X text 128 161 record;
#X obj 180 396 f 512;
#X obj 134 348 spigot 2;
#X obj 141 292 sel 0 1;
#X msg 141 316 0;
#X msg 187 316 1, f 2;
#X obj 170 101 tgl 50 0 empty empty empty 17 7 0 10 -262144 -1 -1 0
1;
#X text 173 82 on/off;
#X obj 292 151 s \$0b;
#X obj 98 16 r \$0b;
#X obj 44 40 *~ 0;
#X obj 231 396 r isel;
#X obj 195 458 array size;
#X obj 134 372 t b b b;
#X msg 231 422 symbol impulse\$1;
#X obj 157 458 list;
#X msg 157 434 set;
#X obj 157 482 list trim;
#X obj 148 268 r \$0b;
#X obj 212 368 * 4410;
#X connect 1 0 18 0;
#X connect 2 0 0 0;
#X connect 3 0 11 0;
#X connect 5 0 27 0;
#X connect 7 0 10 0;
#X connect 9 0 20 0;
#X connect 10 0 21 0;
#X connect 11 0 12 0;
#X connect 11 1 12 0;
#X connect 11 2 13 0;
#X connect 12 0 10 1;
#X connect 13 0 10 1;
#X connect 14 0 16 0;
#X connect 17 0 18 1;
#X connect 18 0 2 0;
#X connect 18 0 4 0;
#X connect 19 0 22 0;
#X connect 21 0 4 0;
#X connect 21 1 24 0;
#X connect 21 2 9 0;
#X connect 22 0 20 1;
#X connect 22 0 23 1;
#X connect 23 0 25 0;
#X connect 24 0 23 0;
#X connect 25 0 4 0;
#X connect 26 0 11 0;
#X connect 27 0 9 1;
#X coords 0 -1 1 1 200 170 1 70 70;
#X restore 539 32 pd impulse-sampler;
#N canvas 1832 311 645 310 output-sampler 0;
#X obj 34 7 inlet~;
#X obj 34 194 outlet~;
#N canvas 2491 140 714 422 (subpatch) 0;
#X array record 441000 float 2;
#X coords 0 1 441000 -1 200 80 1 0 0;
#X restore 257 139 graph;
#X obj 261 84 bng 35 250 50 0 empty empty empty 17 7 0 10 -262144 -1
-1;
#X obj 44 130 tabwrite~ record;
#X obj 45 156 tabplay~ record;
#X obj 340 84 bng 35 250 50 0 empty empty empty 17 7 0 10 -262144 -1
-1;
#X text 341 120 play;
#X obj 419 84 bng 35 250 50 0 empty empty empty 17 7 0 10 -262144 -1
-1;
#X text 419 120 save;
#N canvas 2084 504 379 146 file-save 0;
#X obj 14 10 inlet;
#X obj 14 34 count-saver;
#X msg 14 83 write -wave outputrecordings/\$1 record;
#X obj 14 59 makefilename AuditionTake%d.wav;
#X obj 14 107 soundfiler;
#N canvas 0 25 450 278 (subpatch) 0;
#X array count-save 1 float 3;
#A 0 10;
#X coords 0 -1 1 1 10 109 1 0 0;
#X restore 299 19 graph;
#X connect 0 0 1 0;
#X connect 1 0 3 0;
#X connect 2 0 4 0;
#X connect 3 0 2 0;
#X restore 480 136 pd file-save;
#N canvas 563 118 385 415 vu 0;
#X obj 59 129 env~ 1024;
#X obj 161 111 abs~;
#X obj 161 213 snapshot~;
#X obj 161 256 rmstodb;
#X obj 161 21 inlet~;
#X obj 161 288 - 100;
#X obj 59 287 - 100;
#X obj 59 361 outlet;
#X obj 161 361 outlet;
#X obj 239 89 expr 1000 / $f1;
#X floatatom 239 117 5 0 0 0 - - -;
#X obj 161 146 slop~ 0 0 0 0 1e+09;
#X obj 59 171 t f b;
#X obj 239 40 loadbang;
#X msg 239 64 500;
#X connect 0 0 12 0;
#X connect 1 0 11 0;
#X connect 2 0 3 0;
#X connect 3 0 5 0;
#X connect 4 0 0 0;
#X connect 4 0 1 0;
#X connect 5 0 8 0;
#X connect 6 0 7 0;
#X connect 9 0 10 0;
#X connect 10 0 11 3;
#X connect 11 0 2 0;
#X connect 12 0 6 0;
#X connect 12 1 2 0;
#X connect 13 0 14 0;
#X connect 14 0 9 0;
#X restore 203 26 pd vu;
#X obj 209 97 vu 15 120 empty empty -1 -8 0 10 -66577 -1 1 0;
#X connect 0 0 1 0;
#X connect 0 0 4 0;
#X connect 0 0 11 0;
#X connect 3 0 4 0;
#X connect 5 0 1 0;
#X connect 6 0 5 0;
#X connect 8 0 10 0;
#X connect 11 0 12 0;
#X connect 11 1 12 1;
#X coords 0 -1 1 1 270 183 1 200 50;
#X restore 262 65 pd output-sampler;
#X obj 210 253 s isel;
#X obj 262 253 dac~;
#X obj 539 8 adc~;
#X connect 0 0 2 0;
#X connect 0 1 5 0;
#X connect 1 0 4 0;
#X connect 4 0 6 0;
#X connect 4 0 6 1;
#X connect 7 0 3 0;
