#N canvas 1499 482 181 266 12;
#X obj 26 161 qlist;
#N canvas 2782 158 191 247 kontroll 0;
#X msg 41 104 tempo \$1;
#X obj 41 79 / 60;
#X obj 41 53 r tem;
#X obj 31 26 r starter;
#X msg 52 155 rewind;
#X obj 52 130 r stoper;
#X obj 31 185 outlet;
#X connect 0 0 6 0;
#X connect 1 0 0 0;
#X connect 2 0 1 0;
#X connect 3 0 6 0;
#X connect 4 0 6 0;
#X connect 5 0 4 0;
#X restore 26 27 pd kontroll;
#X obj 38 53 loadbang;
#X obj 68 188 print done;
#X obj 38 79 symbol \$1;
#X msg 38 105 read \$1;
#X obj 58 133 print qlist-read;
#X obj 58 212 s done;
#X connect 0 1 3 0;
#X connect 0 1 7 0;
#X connect 1 0 0 0;
#X connect 2 0 4 0;
#X connect 4 0 5 0;
#X connect 5 0 6 0;
#X connect 5 0 0 0;
