#N canvas -925 373 166 242 12;
#X obj 39 100 rzero_rev~ 0;
#X obj 21 131 -~;
#X obj 21 155 abs~;
#X obj 21 28 inlet;
#X obj 21 185 outlet~;
#X obj 21 57 f 1;
#X obj 55 58 == 1;
#X connect 0 0 1 1;
#X connect 1 0 2 0;
#X connect 2 0 4 0;
#X connect 3 0 5 0;
#X connect 5 0 0 0;
#X connect 5 0 1 0;
#X connect 5 0 6 0;
#X connect 6 0 5 1;
